<?xml version="1.0" encoding="utf-8"?>
<!-- Generator: Adobe Illustrator 19.0.0, SVG Export Plug-In . SVG Version: 6.00 Build 0)  -->
<svg version="1.1" id="Layer_1" xmlns="http://www.w3.org/2000/svg" xmlns:xlink="http://www.w3.org/1999/xlink" x="0px" y="0px"
	 viewBox="-340 342 398 398" style="enable-background:new -340 342 398 398;" xml:space="preserve">
<style type="text/css">
	.st0{fill:#FFFFFF;}
	.st1{fill:#FFCB96;}
	.st2{fill:#A4A4A4;}
	.st3{fill:#67686A;}
	.st4{fill:#464A70;}
	.st5{fill:#454967;}
	.st6{fill:#3D405F;}
	.st7{fill:#363A53;}
	.st8{fill:#292C3F;}
	.st9{fill:#31322D;}
	.st10{fill:#292A2C;}
	.st11{fill:#262B2B;}
	.st12{fill:#222436;}
	.st13{fill:#1D2323;}
	.st14{fill:#191A1B;}
	.st15{fill:#1A1B16;}
	.st16{fill:#070916;}
	.st17{fill:#060606;}
	.st18{fill:#0E0000;}
	.st19{fill:#FFCB96;stroke:#000000;stroke-width:3;stroke-miterlimit:10;}
</style>
<g id="outputsvg">
	<g id="l4Gz6iCTLTRbydANFffbibj">
		<g>
			<path id="p25Z7mLYx" class="st0" d="M-271,737.5c0-1.3,1.4-4.8,3.1-7.7c5-8.4,9.9-20.2,18.9-45c4.3-11.8,4.3-11.8,7.5-11.8
				c3,0,3.7,0.7,10,10.8c3.7,5.9,9.2,14.2,12.3,18.5c5.3,7.4,5.7,7.7,9.6,7.7c2.7,0,5.8,1,9.1,3c6,3.5,8.9,3.8,11.3,0.8
				c0.9-1.2,3.8-4.4,6.5-7.2c5.7-6.1,8.2-11.3,10.3-20.9c0.8-4,3.3-13,5.6-20c3.4-10.6,4.5-13,6.7-14.2c3.6-1.8,8.5-7.2,10.8-11.8
				c1-2.1,3.6-4.9,5.8-6.2l4-2.4l-3.7-0.1c-3.8,0-3.8,0-3.8-4c0-3.9-0.1-4-3.5-4c-3.3,0-3.5-0.2-3.5-3.3c0-1.9,1.4-6.2,3-9.6
				c1.7-3.5,2.9-6.5,2.6-6.8c-0.2-0.3-2.3,3.4-4.5,8.1c-4,8.4-4.2,8.6-7.6,8.6h-3.5v-9.2c0-9.4-1.3-14.7-2.4-9.7
				c-0.3,1.3-0.7,6.2-1,10.9c-0.3,4.7-1,10.2-1.6,12.3c-1,3.4-1.4,3.7-5,3.7c-3.3,0-4.1-0.5-6-3.6c-2.6-4.1-3.7-4-1.5,0.2
				c0.8,1.6,1.5,3.8,1.5,4.9c0.1,2.5,3.4,9.9,6,13.2c4.2,5.3,2.5,9.7-11.6,31.1c-4.4,6.6-6.9,5.9-17.4-5.3c-4.7-5-11.4-12.2-15-16
				c-5.9-6.3-8-7.7-24.7-16.2c-10-5.1-18.9-9.3-19.8-9.3c-1,0-1.5-1-1.5-3.2c0-3.1,0.6-3.6,8.3-7.7c8.4-4.5,17.5-11,21.3-15.2
				c2.8-3.1,7.4-11.9,7.4-14.2c0-1,0.7-2,1.5-2.3c0.8-0.4,1.5-1.7,1.5-3.1c0-2.3,0.3-2.5,4.4-2.1c4.2,0.3,4.5,0.1,8.5-4.7
				c2.6-3.1,4.9-7.4,6.1-11.4c2.4-7.5,2.5-10.1,0.5-12.7c-2.4-3.1-1.6-12.8,2-23.9c2.3-7.2,2.7-15.7,1-20.4
				c-0.8-2.4-1.5-5.6-1.5-7.1c0-6.1-12.4-19.4-24.7-26.6c-3.9-2.2-6.3-4.3-6.3-5.4c0-2.1-6.9-4.5-19.5-6.7c-14-2.4-27.6-0.6-40,5.2
				c-5.5,2.6-14,10.3-15,13.6c-0.4,1-2.5,2.7-4.8,3.8c-2.3,1.1-4.9,2.6-5.8,3.3c-2.6,2.2-5.9,8.1-5.9,10.8c0,1.4-0.9,5.4-2,8.8
				c-1.4,4.4-2,9.2-2,15.6c0,8.3-0.3,9.6-2.5,12.6c-3.9,5.3-4.7,9.7-3.3,17.1c1.3,6.2,1.4,6.4,4.6,6.7c2.8,0.3,3.2,0.7,3.2,3.3
				c0,1.7,0.5,2.9,1.3,2.9c3.4,0,4.7,2.6,5.6,11.2c0.7,5.8,1.8,10.3,3.5,13.7c2.7,5.3,10.7,15.7,13.8,17.9c1.2,0.9,1.8,2.6,1.8,5.4
				v4.1l-9.2-0.7c-5-0.3-13.8-0.6-19.5-0.6H-340V478.5V342h199H58v199v199h-164.5H-271V737.5z"/>
			<path id="pszmKBCqV" class="st0" d="M-251.7,559.7c-1.7-0.6-3.5-1.5-3.9-1.9c-0.4-0.5-2.2-0.8-4.1-0.8c-3.1,0-3.3-0.2-3.3-3.5
				c0-2.4,0.5-3.5,1.5-3.5c0.8,0,1.5-0.9,1.5-2c0-3.8,4.5-5.5,14.9-5.4c13.9,0.1,17.9,2.7,16.9,10.9c-0.5,4.6-4.8,6.9-13.1,7.2
				C-245.3,560.8-249.9,560.4-251.7,559.7z"/>
			<path id="pGkP6NTqI" class="st0" d="M-301.2,553.5c-5.8-1.9-8.8-5.5-8.8-10.6c0-5.7,3.2-7.5,12.9-7.2c4.3,0.1,7.7,0.6,7.9,1.2
				c0.2,0.6,1.7,1.1,3.3,1.1c4.6,0,7.9,3.9,7.9,9.4c0,4-0.3,4.5-3.1,5.5C-286.6,554.8-296.1,555.1-301.2,553.5z"/>
		</g>
	</g>
	<g id="l57zco4pA1WeXsxoSbxTXct">
		<g>
			<path id="p15VJRGg2M" class="st1" d="M-292,637.5c-14.9-3.7-22-9.9-22-19.3v-4.9l8.2-0.7c8-0.7,8.2-0.6,11.9,2.4
				c8.1,6.5,12.4,8,22.6,8c11.3,0,13.3,0.8,13.3,5.4c0,4.1-3.7,8.2-8.9,9.6C-271.9,639.4-285.4,639.1-292,637.5z"/>
			<path id="p19irxpFst" class="st1" d="M-273.3,609.2c-1-1-1.7-2.4-1.7-3c0-1.8-1.8-1.4-4,0.8c-1.4,1.4-3.3,2-6.2,2
				c-7,0-11.3-1.7-15.2-6c-2.9-3.2-3.6-4.8-3.6-8c0-3.9-0.1-4-3.5-4c-2.2,0-3.8-0.6-4.1-1.5c-0.4-0.8-1.3-1.5-2-1.5
				c-0.8,0-1.9-1-2.5-2.3c-0.6-1.3-2-2.7-3.2-3.2c-1.6-0.7-2.5-2.4-3.1-5.7c-0.8-4.3-1.2-4.7-4-5c-2.4-0.2-3.8-1.3-6.3-5.1
				c-4.3-6.4-5.3-10.4-5.3-21.3c0-7.8,0.3-9.6,2.3-12.5s2.9-3.4,6.9-3.7l4.7-0.3l0.4,4.8c0.3,4,0.4,3.7,0.5-2
				c0.2-5.2,0.9-8.6,3.2-13.7c1.7-3.8,3.7-10.2,4.4-14.4c2.3-11.8,2.2-11.7,12.4-11.5c4.8,0.1,10.8-0.1,13.5-0.6
				c3.7-0.6,5.1-0.4,6.5,0.8c1,0.9,3.9,2.6,6.4,3.7c4.1,1.8,7.2,2.1,23.5,2.4c19.1,0.4,24.9,1.3,32.3,5.1c6.2,3.1,7,4.3,7,10.5
				c0,3.1,0.3,11.2,0.7,17.8l0.6,12.2h4.6c4.1,0,4.9,0.4,6.4,2.9c3.9,6.6,0.7,22-6.3,30.5c-5.9,7.1-7.9,8.6-11.4,8.6
				c-2.4,0-3.6,0.8-5.4,3.5c-1.2,1.9-3,3.5-4.1,3.5c-1,0-2.6,0.9-3.6,2s-2.6,2-3.6,2s-2.1,0.5-2.4,1c-0.3,0.6-2.1,1-4,1
				c-2.9,0-3.4,0.4-4,2.9c-0.6,2.9-3.4,6-7.2,8c-1.2,0.6-5.7,1.1-10.1,1.1C-270.2,611-272,610.6-273.3,609.2z M-256.1,588.4
				c0.2-0.2-3-0.4-7.1-0.4s-9.7-0.2-12.4-0.5c-6.6-0.7-4.4,0.3,3.1,1.4C-267.2,589.7-257.2,589.3-256.1,588.4z M-236.7,556.7
				c10.3-4.4,4.6-11.1-9.3-10.8c-1.4,0-3.4,0.1-4.5,0.1c-2.7,0.1-6.5,2.7-6.5,4.5c0,1.6,4.2,4.8,8.5,6.3
				C-244.3,558.3-240.5,558.2-236.7,556.7z M-284.2,549.8c1.7-0.5,3.2-1.6,3.2-2.4c0-2.1-5.2-7.2-5.8-5.6c-0.3,0.9-1.2,0.6-3.2-0.8
				c-3.6-2.6-11-2.9-14.4-0.6c-3.1,2-3.2,2.6-0.5,6C-301.2,551.1-293,552.5-284.2,549.8z"/>
			<path id="p6DiLtxE7" class="st1" d="M-248.6,554.5c-1.4-1.1-1.5-1.4-0.4-1.5c2.6,0,6,1.2,6,2.1
				C-243,556.5-246.4,556.1-248.6,554.5z"/>
			<path id="p1GuXRymtw" class="st1" d="M-297.6,548.4c-1.8-1.5-1.7-1.5,1.5-1c1.8,0.3,4.3,0.6,5.5,0.6c1.7,0,1.8,0.2,0.6,1
				C-292.2,550.4-295.4,550.2-297.6,548.4z"/>
		</g>
	</g>
	<g id="l3wQop6xWzSCq9sQcB5yH53">
		<g>
			<path id="pLXkoA3Sh" class="st2" d="M-282.6,605.8c0.3-0.7,0.9-2.1,1.2-3c0.7-1.9,1.6-2.1,6-1.2c1.8,0.3,3.4,1.5,4.1,3l1.1,2.4
				h-6.5C-281.5,607-283,606.7-282.6,605.8z"/>
			<path id="pIEgtWgQq" class="st2" d="M-210.3,565.3c-0.4-0.3-0.7-2.1-0.7-4c0-2.3-0.5-3.3-1.5-3.3c-0.8,0-1.5,0.7-1.5,1.5
				c0,0.8-0.4,1.5-1,1.5c-0.5,0-1-1.6-1-3.5c0-3.1,0.3-3.5,2.5-3.5c1.8,0,2.3,0.4,1.9,1.5c-0.4,1,0,1.5,1.1,1.5c1.2,0,1.6,0.6,1.2,2
				c-0.3,1.1,0,2,0.5,2c0.6,0,0.6,0.6-0.2,1.5c-0.6,0.8-0.9,1.9-0.5,2.5C-208.8,566.1-209.3,566.4-210.3,565.3z"/>
			<path id="p22MvXcNO" class="st2" d="M-332,548.1c0-0.5,0.7-1.1,1.5-1.5c0.9-0.3,1.5,0,1.5,0.9c0,0.8-0.7,1.5-1.5,1.5
				S-332,548.6-332,548.1z"/>
			<path id="p1H5VAscuO" class="st2" d="M-325.4,545.4c-0.4-0.9-1.3-1.4-2.1-1c-1.8,0.6-1.9,0.1-0.5-2.5c0.6-1,2-1.9,3-1.9
				c1.6,0,2,0.7,2,3.5C-323,547.1-324.3,548.2-325.4,545.4z"/>
		</g>
	</g>
	<g id="l6HlHr7bQ2DZUW2IbGwMyy5">
		<g>
			<path id="pCTrO1qmF" class="st3" d="M-284,606.1c0-0.5,0.7-1.1,1.5-1.5c0.8-0.3,1.5-1.3,1.6-2.3c0-1.6,0.1-1.6,0.9,0.2
				c0.5,1.1,0.9,1.4,0.9,0.8c0.2-2.8,8.1,0.1,8.1,2.9c0,0.5-2.9,0.8-6.5,0.8S-284,606.6-284,606.1z"/>
			<path id="p1ArM47AoO" class="st3" d="M-277.7,586.4c-0.3-0.9-1.5-2-2.7-2.5c-1.5-0.6-1-0.7,1.7-0.3c3.1,0.5,3.6,0.4,3.1-1
				c-0.3-0.9-1.2-1.6-2-1.6c-1.6,0-1.9-1.6-0.5-2.5c0.6-0.3,1.5,0.4,2.1,1.5c1.1,2.1,3.8,2.2,6.3,0.2c1.9-1.6,8.7-1.1,8.7,0.7
				c0,1-0.8,1.2-3,0.7c-2.9-0.5-7,1-7,2.6c0,0.5,1.2,0.8,2.6,0.8c2.3,0,2.4,0.2,1,1.5C-269.4,588.6-276.9,588.5-277.7,586.4z"/>
			<path id="p1EYQssYH7" class="st3" d="M-211,559.3c0-2.1,0.3-2.4,0.9-1.4c0.5,0.8,0.7,2,0.4,2.8C-210.5,562.8-211,562.2-211,559.3
				z"/>
			<path id="ppKDVfVZU" class="st3" d="M-214,556c0-1.1,0.7-2,1.5-2c1.3,0,1.4,0.4,0.5,2c-0.6,1.1-1.3,2-1.5,2
				C-213.8,558-214,557.1-214,556z"/>
			<path id="p19qhc7dUS" class="st3" d="M-323,509.6c0-5.4,0.8-6.6,4.6-6.6c3,0,3.4,0.3,3.4,2.8c0,5.7-1,7.2-4.6,7.2
				C-322.8,513-323,512.8-323,509.6z"/>
			<path id="pT6YqRhuN" class="st3" d="M-322,497.5c0-3.3,0.2-3.5,3.5-3.5s3.5,0.2,3.5,3.5s-0.2,3.5-3.5,3.5S-322,500.8-322,497.5z"
				/>
			<path id="pdWq02dr" class="st3" d="M-230.5,499c-1.1-0.5-4.1-0.9-6.7-0.9c-4.8-0.1-4.8-0.1-4.8-3.5c0-3.9,1.4-4.6,10.2-4.6
				c8.3,0,10.8,1.4,10.8,6.2c0,3.7-0.1,3.8-3.7,3.7C-226.8,499.9-229.4,499.5-230.5,499z"/>
			<path id="pJpcGkp8o" class="st3" d="M-221.7,489.3c-0.7-0.2-1.3-2-1.3-3.9c0-3.1,0.3-3.4,2.9-3.4c4.9,0,6.1,0.9,6.1,4.6
				c0,3.2-0.2,3.4-3.2,3.3C-219,489.9-221.1,489.6-221.7,489.3z"/>
			<path id="pklIGqQ7j" class="st3" d="M-296,485.5c0-3,0.5-3.7,3.7-5.2c2.4-1.2,3.9-2.7,4.3-4.3c0.5-2,1.6-2.7,6-3.8
				c5.6-1.3,27.8-1.9,32.1-0.8c1.3,0.3,1.8,0.3,1.2,0c-0.7-0.3-1.3-1.9-1.3-3.5V465l-7.2,0.1c-4,0-9.5,0.4-12.3,0.9
				c-2.7,0.5-7.1,1.3-9.7,1.6l-4.8,0.7v-3.6c0-2.9,0.4-3.6,2.5-4.1c1.3-0.3,3.3-1.6,4.4-2.7c1.9-2,2.7-2.1,14.5-1.6
				c6.9,0.3,13,0.8,13.6,1.2c0.5,0.3,1,1.9,1,3.6c0,2.9,0,2.9,6,2.9c3.3,0,6-0.4,6-1c0-1.3,4-1.3,6,0c1.1,0.7,1.2,1.2,0.3,1.8
				c-1.6,1,2,5.2,4.6,5.2c1.7,0,2.1,0.6,2.1,2.9c0,7-3.5,7.9-12.8,3.2c-3.1-1.5-6.7-3.2-7.9-3.5c-2.1-0.7-2.3-0.4-2.3,3v3.6
				l-7.5-0.7c-6.5-0.6-7.5-0.5-7.5,0.9c0,0.9-0.7,1.6-1.5,1.6c-0.9,0-6.9,1.8-13.5,4s-13.8,4-16,4C-295.9,489-296,488.9-296,485.5z"
				/>
			<path id="pF3sNtlSZ" class="st3" d="M-307,475.5c0-1.8,0.6-3.8,1.3-4.2c0.8-0.4,1.6-1.6,2-2.5c0.4-1.3,1.7-1.8,4.2-1.8
				c3.3,0,3.5,0.2,3.5,3.5c0,2.2-0.6,3.8-1.5,4.1c-0.8,0.4-1.5,1.5-1.5,2.5c0,1.5-0.7,1.9-4,1.9C-306.9,479-307,478.9-307,475.5z"/>
		</g>
	</g>
	<g id="l5i9OUMB6mdrxhuFxGSF6Hr">
		<g>
			<path id="pCM53ACYm" class="st4" d="M-282,737.4c0-2.6,4.9-12.4,6.2-12.4c1.5,0-0.5-3.7-2.5-4.5c-1.9-0.9-2.2-1.8-2.2-7.5v-6.5
				l4.1-0.3c4-0.3,4.2-0.2,4.8,3.2c0.6,3.3,1,3.6,4.1,3.6c3.4,0,3.5,0.2,3.5,3.7c0,4-1.9,10.3-3.2,10.3c-0.4,0-0.8,1.4-0.8,3
				c0,1.7-0.9,3.9-2,5s-2,2.7-2,3.5c0,1.1-1.2,1.5-5,1.5C-281.7,740-282,739.9-282,737.4z"/>
			<path id="ptERfI9Tr" class="st4" d="M-210,705c0-1.6-0.7-2-3-2c-2.8,0-3-0.3-3-3.4c0-2.4-0.8-4.4-2.6-6.3c-2-2.1-2.5-3.6-2.2-6.4
				c0.3-3.6,0.3-3.6-2.7-2.8c-6.6,1.9-8,1.3-9.5-4c-1.1-4.2-1.8-5-3.9-5.3c-2.4-0.3-2.6-0.7-2.9-5.5c-0.4-6.7,1-9.3,4.8-9.3
				c2.7,0,3-0.3,3-3.4c0-1.9,0.5-3.8,1.2-4.2c1.9-1.2-2-2.3-8.4-2.3c-5.4-0.1-5.8-0.3-5.8-2.5c0-1.3-0.7-2.6-1.5-3
				c-1-0.3-1.5-1.9-1.5-4.6v-4h5.4c7,0,8.6,0.7,8.6,3.6c0,2.1,0.5,2.4,3.8,2.4c4.3,0,6.2,1.4,6.2,4.7c0,1.5,0.6,2.3,1.8,2.3
				c2.9,0,4.2,2.1,4.2,6.5c0,3.4-0.5,4.5-3,6.3c-1.6,1.2-4.1,2.2-5.5,2.2c-2.1,0-2.5,0.5-2.5,3c0,2.3,0.5,3,1.9,3c1,0,2.1,0.9,2.4,2
				c0.3,1.4,1.4,2,3.1,2c2.4,0,2.6,0.3,2.6,4.5c0,4.9,0.4,5.3,2.7,2.9c1.1-1.1,2.9-1.5,5.5-1.2c3.6,0.3,3.8,0.2,3.8-2.4
				c0-2.6,0.3-2.8,3.9-2.8c2.6,0,4.1,0.5,4.5,1.6c1.1,3,0.6,9.1-0.9,10.4c-0.8,0.7-1.5,1.9-1.5,2.6c0,0.8,0.7,1.4,1.5,1.4
				c1,0,1.5,1.1,1.5,3.5c0,2.8-0.4,3.5-2,3.5c-1.7,0-2,0.7-2,4.5v4.5h-4C-209.3,707-210,706.7-210,705z"/>
			<path id="pJKTiuJHK" class="st4" d="M-262.3,695.4c-1.1-1.2-0.8-9.3,0.5-11.7c0.6-1.2,1.8-2.8,2.6-3.7c1.4-1.3,1.2-1.5-1.6-1.8
				l-3.2-0.3v-9.5V659h4h4v7.5v7.5h4h4v4.3c0,2.4-0.7,5.3-1.7,6.7c-1,1.3-2,4.3-2.3,6.5c-0.5,3.9-0.6,4-5,4.3
				C-259.5,696-261.9,695.8-262.3,695.4z"/>
			<path id="p1GaKgjCBN" class="st4" d="M-328,685v-10h4h4v10v10h-4h-4V685z"/>
			<path id="pqwEfy9Ew" class="st4" d="M-285.3,689.4c-0.4-0.4-0.7-2.2-0.7-4.1c0-2.7,0.5-3.5,2.7-4.4c1.5-0.5,4.1-0.9,5.7-0.7
				c3,0.3,3.1,0.5,3.1,4.8v4.5l-5,0.3C-282.3,690-284.9,689.8-285.3,689.4z"/>
			<path id="pfPq0fMgT" class="st4" d="M-297.2,672.3c-3.3-1.7-4-4-3.6-11.8l0.3-6h5h5l0.8,5c0.4,2.8,1,7.1,1.3,9.8l0.6,4.7
				l-3.4-0.1C-293,673.8-295.7,673.1-297.2,672.3z"/>
			<path id="pRNmBmoOq" class="st4" d="M-312.3,651.3c-1.6-1.5-0.7-7.3,1.3-8.5c1.1-0.7,2-2.1,2-3c0-1.2,1.2-2,3.8-2.7
				c6-1.5,15-2.3,18.2-1.6c2.5,0.5,3,1.2,3,3.5c0,1.6-0.8,4.5-1.7,6.5c-1.5,3.1-2.1,3.5-5.5,3.5c-2.3,0-3.8-0.5-3.8-1.2
				c0-0.9-0.3-0.9-1.2,0c-0.7,0.7-2.2,1.2-3.4,1.2c-1.2,0-2.4,0.7-2.8,1.5C-303,652-311,652.7-312.3,651.3z"/>
			<path id="pbvxqtEWy" class="st4" d="M-270.8,646.3c-0.9-1.3-1.4-1.5-1.8-0.5c-0.8,1.8-7.4,1.6-7.4-0.3c0-0.8-0.7-1.5-1.5-1.5
				c-1,0-1.5-1-1.5-3.4c0-4,0.3-4.2,10.8-5.1c5.2-0.5,7.2-1.1,7.2-2.1c0-0.9,1.2-1.4,3.5-1.4c3.4,0,3.5,0.1,3.5,4c0,2.2,0.5,4,1,4
				c0.6,0,1,1.5,1,3.4c0,3.1-0.3,3.4-3.7,4C-266.2,648.4-269.4,648.1-270.8,646.3z"/>
			<path id="pWUzwQhgg" class="st4" d="M-337.2,629.3c-2.5-0.4-2.8-0.9-2.8-4.2v-3.8l10-0.8c11.8-0.8,13.3-0.2,12.8,5.4l-0.3,3.6
				l-8.5,0.1C-330.7,629.7-335.7,629.5-337.2,629.3z"/>
		</g>
	</g>
	<g id="l5QuDtOdt8r7cTOnG8YNAoI">
		<g>
			<path id="p67PsBkjf" class="st5" d="M-340,682.9v-57.1l9.4,0.5c9.7,0.6,11.3,0.3,9.6-1.8c-0.7-0.9-3.6-1.1-10-0.7l-9,0.5v-4.7
				c0-4.4,0.1-4.6,3-4.6c1.7,0,3,0.5,3,1c0,0.6,0.8,1,1.8,1s2.4,0.6,3.1,1.2c1.1,1,1.4,1,1.8,0.1c0.3-0.7,1.6-1.3,2.9-1.3
				c1.9,0,2.4-0.5,2.4-2.5c0-2.4,0.3-2.5,5.5-2.5h5.5v4c0,8.7,7.7,15.1,22.5,18.6c7.1,1.6,13.6,1.8,18.6,0.4
				c3.9-1.1,9.2-5.7,8.3-7.1c-0.3-0.5,1.1-0.9,3-0.9c3.5,0,3.6,0.1,3.6,3.6v3.7l6.9-0.7c6.8-0.7,7.2-0.6,16.4,3.8
				c7.6,3.7,10.7,5.9,16.5,11.8c4,4,7.2,8,7.2,8.9c0,1.5,3,7.7,6.1,12.7c1,1.6,2.4,2.2,4.8,2.2h3.4l-0.8,7.2c-0.3,4-1.3,8.4-2.1,10
				c-0.8,1.5-1.4,5.4-1.4,8.8c0,5.4-0.3,6.4-2.7,8.5c-2.1,1.8-4,2.4-7.5,2.5c-3.3,0-4.8-0.4-4.8-1.3c0-0.9-1.1-1.2-3.6-0.9
				c-4.1,0.5-5.4-0.7-5.4-5.1c0-2.9-3.6-8.7-5.4-8.7c-0.6,0-2.3-2-3.9-4.3c-1.5-2.3-4.4-6.3-6.5-9c-3.5-4.5-3.7-4.6-4.6-2.5
				c-0.5,1.3-1.8,4.2-2.9,6.6c-1.1,2.4-2.3,5.8-2.7,7.5c-0.4,1.8-2,6.4-3.5,10.2c-1.5,3.9-3.3,8.7-4.1,10.8
				c-2.3,6.1-8.1,17.8-11.1,22.5c-2.1,3.2-3.4,4.2-5.4,4.2s-2.8-0.6-3.3-2.5c-0.4-1.4-1.1-2.5-1.6-2.5s-1.2,1.1-1.6,2.5l-0.6,2.5
				h-30.4H-340V682.9z M-273,732c2.3-2.3,2.6-4,0.8-4c-0.7,0-2.1,1.4-3,3C-277.1,734.4-276,735-273,732z M-268.1,720.4
				c0.7-1.9,1-3.8,0.7-4.1c-0.3-0.4-0.6-0.1-0.6,0.5c0,1.1-3.1,0.9-5-0.3c-0.5-0.3-1.2-2.1-1.6-4.1c-0.7-4-2.7-4-3.2,0
				c-0.4,3.1,1.5,5.9,3.5,5.2c0.7-0.3,1.3,0.1,1.3,0.9c0,1.7,2.1,5.5,3,5.5C-269.7,724-268.8,722.4-268.1,720.4z M-205,702.5
				c0-0.8-0.4-1.5-1-1.5c-0.5,0-1,0.7-1,1.5c0,0.8,0.5,1.5,1,1.5C-205.4,704-205,703.3-205,702.5z M-208.5,698.4
				c1.1-0.8,2-1.8,2.1-2.2c0-0.4,0.6-1.9,1.4-3.5c0.7-1.5,1.1-3,0.7-3.3c-1.1-1.2-4.2,1.5-4.2,3.8c0,1.6-0.7,2.4-2.2,2.6
				s-2.3,1-2.3,2.3C-213,700.4-211.3,700.5-208.5,698.4z M-298,692.5c0-0.5-0.7-1.9-1.5-2.9c-0.8-1.1-1.5-4.1-1.5-6.7
				c0-10.7-2.9-18.3-9.9-25.6c-4.3-4.6-5.6-1.3-2,4.7c2.7,4.4,5.9,15.3,5.9,20.1c0,2,0.7,4.2,1.5,4.9c0.9,0.7,1.5,2.9,1.5,5v3.8
				l3-1.1C-299.3,694.1-298,693.1-298,692.5z M-255.2,689.5c0.1-1.7,1.2-4.9,2.4-7.2c1.2-2.3,1.9-4.5,1.6-4.9
				c-1.2-1.2-3.8,0.5-3.8,2.4c0,1-0.9,2.9-2,4.2c-3.7,4.3-3.8,9.5-0.2,8.8C-256.1,692.6-255.4,691.3-255.2,689.5z M-323,685
				c0-4-0.4-7-1-7s-1,3-1,7s0.4,7,1,7S-323,689-323,685z M-210,685.9c0-2.4-1.6-3.2-3.2-1.6c-0.7,0.7-2.1,1.6-3.1,2
				c-1.7,0.6-1.7,0.8-0.1,3.2l1.7,2.6l2.3-2.2C-211.1,688.6-210,686.9-210,685.9z M-277.4,685.9c0.3-0.6,0.2-1.4-0.2-1.9
				c-1.2-1.1-5.7,0.7-4.9,2C-281.7,687.3-278.3,687.3-277.4,685.9z M-201.5,680.1c-1-3.4-2.5-2.4-2.5,1.6c0,3.4,0.1,3.6,1.6,2.1
				C-201.4,682.8-201,681.5-201.5,680.1z M-222.3,680c0.2,0,0.3-0.7,0.3-1.5c0-0.9-1-1.5-2.6-1.5c-1.7,0-2.8-0.6-3.1-2
				c-0.3-1.1-0.9-2-1.4-2c-1.7,0-1.9,2.1-0.5,4.8c0.8,1.6,1.3,3.2,0.9,3.5c-0.3,0.4,0.9,0.2,2.8-0.3C-224,680.4-222.4,680-222.3,680
				z M-284.1,674.8c4.8-5,6.6-8.4,3.9-7.6c-1.4,0.5-9.7,10.8-9.8,12.1C-290,680.7-289.1,680-284.1,674.8z M-259,668.5
				c0-3.7-0.4-6.5-1-6.5s-1,2.8-1,6.5c0,3.7,0.4,6.5,1,6.5S-259,672.2-259,668.5z M-233.2,670.8c0.7-0.7,1.2-2.7,1.2-4.6
				c0-2.6-0.4-3.3-1.7-3c-2,0.4-3.9,4.8-3,7.2C-235.9,672.3-234.8,672.4-233.2,670.8z M-291.5,668.8c-0.4-1.3-1-4.3-1.4-6.8
				c-0.5-3.6-1-4.5-2.6-4.5c-2.2,0-3.2,3.8-2.1,8.1c0.5,1.8,3.8,4.5,6.5,5.3C-290.9,671-291.1,670-291.5,668.8z M-223.5,658.5
				c2.5-2,2.8-2.8,1.9-4.2c-1.9-3-4.7-2.7-6.2,0.7c-1.4,3-1.1,6,0.5,6C-226.9,660.9-225.1,659.8-223.5,658.5z M-305.2,646.7
				c0.2-1-0.3-1.7-1.1-1.7c-1.8,0-3.9,2.4-3,3.4C-308.1,649.6-305.5,648.6-305.2,646.7z M-228,646.5c-0.8-1-3.1-1.5-6.6-1.5
				c-6.9,0-7,1.8-0.1,2.3c2.8,0.2,5.8,0.4,6.6,0.5C-227,648-227,647.7-228,646.5z M-298.7,644.6c2-1.5,2.3-4.2,0.5-4.8
				c-2.1-0.8-7.8,1.1-7.8,2.5C-306,645.7-301.9,647-298.7,644.6z M-288.7,642.6c1.5-3.3,1.5-3.4-0.5-4c-1.2-0.3-2.5-0.3-3,0
				c-1.5,1-0.6,7.4,1.1,7.4C-290.7,646-289.6,644.5-288.7,642.6z M-263.7,643.6c0.3-0.8-0.3-2.3-1.4-3.5c-2.2-2.3-2.8-2.5-4.7-1.3
				c-0.9,0.6-0.7,1.5,1,3.5C-266.2,645.2-264.5,645.7-263.7,643.6z M-237,641.6c0-1.6-2.1-2.6-5.6-2.6c-2.8,0-3.1,1.5-0.6,2.9
				C-240.7,643.4-237,643.2-237,641.6z"/>
		</g>
	</g>
	<g id="l6IFurXQtSJTrkB9d35U7vY">
		<g>
			<path id="pYjCVgmLI" class="st6" d="M-284,738.6c0-2.1,3.8-10.2,5.4-11.5c1.2-1,1.3-0.6,0.5,2.6c-0.5,2.1-1.2,5.3-1.6,7.1
				c-0.4,2.2-1.1,3.2-2.4,3.2C-283.2,740-284,739.4-284,738.6z"/>
			<path id="pLKtp4LVD" class="st6" d="M-218.4,710.5c-0.9-1.3-1.6-2.7-1.6-3c0-0.3-0.8-1.3-1.7-2.3c-1-1-2.4-2.7-3-3.8
				c-0.7-1-3.7-5.7-6.8-10.3c-3.6-5.5-5.5-9.4-5.5-11.4c0-2.9,0.1-3,1.5-1.1c0.8,1,1.5,1.5,1.5,1c0-1.1,5.9,6.2,7.3,9.1
				c0.5,1.2,1.3,2,1.8,1.8c0.4-0.3,1.7,0.9,2.9,2.5c1.8,2.5,2.5,2.9,3.6,1.9c1.9-1.6,3.4-0.1,4.3,4.2c0.4,1.9,1.6,3.8,2.7,4.4
				c1.1,0.6,1.9,1.5,1.7,2.1c-0.3,0.8,0.8,1.1,2.9,0.9c2.3-0.2,3.3-0.8,3.2-1.9c-0.1-0.9,0.4-1.6,1.2-1.6s1.4-0.7,1.4-1.5
				c0-2.3,2.8-1.8,3.5,0.6c0.5,1.6,0,2.7-2.1,4.5c-1.6,1.3-3.7,2.3-4.6,2.4c-1.1,0-1.8,0.8-1.8,2c0,1.8-0.7,2-5.4,2
				C-216,713-217,712.6-218.4,710.5z"/>
			<path id="pAnX8APef" class="st6" d="M-314.3,703.4c-0.3-0.3,1.2-2.9,3.4-5.6c2.1-2.7,3.9-5.3,3.9-5.7s-1.3-2-3-3.6
				c-3.2-3.1-3.9-5.5-1.5-5.5c0.8,0,1.5-0.3,1.5-0.8c0-2.4-4.2-14.4-6.4-18.2c-1.4-2.5-2.6-5.5-2.6-6.7c0-2.7,2-7.3,3.2-7.3
				c1.6,0,7.3,3.3,8.6,4.9c7.1,8.9,8.8,13.5,9.3,25.1c0.2,4.2,0.9,6,3,8.4c2.6,2.9,2.6,3.2,1.2,5.7c-1.5,2.5-8.7,5.9-12.4,5.9
				c-0.9,0-2.8,0.9-4.2,2C-313,704.2-313.4,704.3-314.3,703.4z M-300.1,693.1c1.1-0.7,1.2-1.3,0.4-2.3c-0.6-0.7-1.4-4.7-1.7-8.8
				c-1-11.5-2.5-15.8-6.5-19.6c-2-1.8-3.7-3.1-3.9-2.9c-0.2,0.1,0.7,3.1,1.9,6.6c1.2,3.5,2.3,9,2.5,12.3c0.2,4.5,0.7,6.1,2.3,7.3
				c1.4,1,2.1,2.5,2.1,4.9C-303,694.1-302.5,694.6-300.1,693.1z"/>
			<path id="p1DBIqfuP1" class="st6" d="M-198.7,684.5c-0.7-0.8-1.3-1.7-1.3-2c0-0.3-1.8-3.5-4-7.1s-4-6.9-4-7.3
				c0-0.3-1.1-2.3-2.5-4.4c-1.4-2-2.1-3.7-1.4-3.7c0.8,0,0.8-0.4-0.1-1.5c-1.1-1.3-0.8-1.5,1.4-1.5c1.9,0,2.9,0.7,3.6,2.6
				c0.6,1.4,2.4,4.5,4,6.9c2.4,3.4,3.7,4.4,6.3,4.7c2.8,0.3,3.2,0.7,3.5,3.4c0.3,2.9-2.6,11.5-3.8,11.4
				C-197.3,685.9-198.1,685.3-198.7,684.5z"/>
			<path id="pXBNu73hd" class="st6" d="M-295.5,683.1c-0.3-0.2-0.5-1-0.5-1.8c0-1.7,10.8-16.3,12.3-16.8c0.7-0.2,2.7-0.6,4.5-0.9
				l3.2-0.5v4.7c0,4.3-0.4,5.2-4.5,9.2c-2.5,2.4-4.5,4.9-4.5,5.6C-285,683.7-294.4,684.2-295.5,683.1z M-281.9,670.8
				c1.6-3,0.3-2-2.7,2c-2.3,3-2.4,3.3-0.5,1.7C-283.8,673.4-282.4,671.7-281.9,670.8z"/>
			<path id="pestYcOiQ" class="st6" d="M-245.6,678.5c0.3-0.8-0.2-1.9-1.2-2.4c-1.5-0.9-1.5-1,0.3-1.1c1.7,0,1.7-0.2,0.5-1
				c-1.3-0.8-1.3-1,0.1-1c0.9,0,1.9-0.7,2.3-1.5c0.9-2.4,2.6-1.7,2.6,1c0,3.4-2,7.5-3.8,7.5C-245.6,680-246,679.4-245.6,678.5z"/>
			<path id="paNF69DRp" class="st6" d="M-218.9,660.2c-0.6-1.2-1.1-2.9-1.1-4s-0.7-2.5-1.5-3.2c-2-1.7-1.9-3,0.3-3
				c1.5-0.1,1.5-0.2-0.2-1.5c-1.9-1.4-1.8-1.5,1.1-1.5c3.4,0,6.3,2.6,6.3,5.8c0,1.9-0.2,2.1-2,1c-2.7-1.7-3.1-0.8-1.9,3.6
				C-216.7,661.7-217.3,663.2-218.9,660.2z"/>
			<path id="pdNRAV0dR" class="st6" d="M-290.4,655.1c-0.8-1.2,1.7-6.1,3.2-6.1s1.5,1,0.2,4.4C-288,656-289.4,656.7-290.4,655.1z"/>
			<path id="pAd2VwGcc" class="st6" d="M-299,653.3c0-0.4,0.5-2.2,1.2-4c1.6-4.4,4.3-4.5,3.4-0.2c-0.3,1.7-0.6,3.5-0.6,4
				s-0.9,0.9-2,0.9S-299,653.7-299,653.3z"/>
			<path id="ptTXwGTM9" class="st6" d="M-238.4,638.2c-2.7-1.4-5.1-2.2-5.3-1.6c-0.4,1.2-17.3,0.7-17.3-0.6c0-0.3,0.7-1.4,1.5-2.4
				c2.6-3.4,1.6-4.1-1.5-1.1c-3.4,3.2-3.9,2.2-1.2-2.5c1.6-3.1,1.9-3.1,6.9-2.6c4.6,0.5,9.6,2.9,14,6.6c0.7,0.5,1.9,1,2.8,1
				c2.2,0,9.5,3.8,9.5,5C-229,641.8-233.4,641-238.4,638.2z"/>
			<path id="p13T5D1z3z" class="st6" d="M-283.2,638.3c-1-0.3-1.8-1-1.8-1.6c0-0.8,1.6-1.1,5-0.9c2.7,0.2,5,0.8,5,1.3
				s-0.6,0.9-1.2,1c-0.7,0-2.2,0.2-3.3,0.3C-280.6,638.6-282.3,638.5-283.2,638.3z"/>
			<path id="p9Z1s3nid" class="st6" d="M-306.6,635.1c-3.7-1.7-9.2-6.6-14.8-13.2c-1.2-1.4-2.1-1.8-2.4-1.1
				c-0.4,1.4-7.8,1.6-8.7,0.2c-0.3-0.5-1.5-1-2.6-1c-1,0-1.9-0.4-1.9-1c0-0.5-0.7-1-1.5-1c-1,0-1.5-1-1.5-3v-3h11.9
				c9.6,0,12,0.3,12.5,1.5c0.4,1-0.1,1.5-1.5,1.5c-2.5,0-1.9,2.7,1.9,8.3c2.7,4,11.3,11.7,13,11.7c0.6,0,1.4,0.5,1.7,1
				C-299.6,637.5-302.1,637.2-306.6,635.1z"/>
			<path id="pmf5GhHLe" class="st6" d="M-302,632.9c-4.5-2-11-8.9-11-11.6c0-0.8,1.6,0.2,3.8,2.4c4.7,4.8,8.3,7.7,10.5,8.6
				c0.9,0.3,1.7,1.1,1.7,1.7C-297,635.2-296.6,635.3-302,632.9z"/>
		</g>
	</g>
	<g id="l3VLAYjzI6YJij326bisHCn">
		<g>
			<path id="puQMcDixw" class="st7" d="M-272.2,737.5c-0.3-1.4-0.1-2.5,0.5-2.5s1.9-0.7,2.9-1.7c1.7-1.5,1.8-1.5,1.8,0.6
				C-267,739.3-271.3,742.2-272.2,737.5z"/>
			<path id="pPEGZEsRl" class="st7" d="M-259.6,712.5c0.1-1.9,0.5-3.5,1-3.5s1.5-0.8,2.2-1.7c2-2.9,2.8-0.7,1.4,4.2
				c-0.9,3.1-1.8,4.5-3,4.5S-259.6,715.2-259.6,712.5z"/>
			<path id="pADMJpbOX" class="st7" d="M-212.5,711c-0.3-0.5,0.4-1,1.5-1c1.6,0,2-0.5,1.6-1.5c-0.6-1.6-0.6-1.7,4.2-2.1
				c3.4-0.2,4.7,2.1,1.7,3.2c-0.8,0.4-1.2,1-0.9,1.5s-1.3,0.9-3.5,0.9S-212.2,711.6-212.5,711z"/>
			<path id="paxihSPIk" class="st7" d="M-225.7,700.2c-2.9-4.3-5.3-8.5-5.3-9.4s-0.7-1.8-1.5-2.2c-0.8-0.3-1.5-1.2-1.5-2
				c0-0.7-0.7-1.6-1.5-2c-0.9-0.3-1.5-1.9-1.5-4.1c0-3.5,0-3.5,2-1.5c1.1,1.1,2,2.4,2,2.8c0,0.8,1.5,2.9,5.7,8
				c1.2,1.4,2.8,3.9,3.4,5.4c0.6,1.5,1.5,2.8,1.9,2.8c0.5,0,1.3,1.2,1.9,2.8c0.6,1.5,1.8,3.7,2.7,5c1.6,2.1,1.6,2.2-0.7,2.2
				C-220,708-221.7,706.2-225.7,700.2z"/>
			<path id="pjZAMgHey" class="st7" d="M-255.3,703c0.3-1.1,0-2-0.6-2c-0.6,0-1.1-0.4-1.1-1c0-0.5,0.9-1,2-1s2-0.7,2-1.5
				c0-0.8,0.5-1.5,1-1.5c1.1,0,1.4,4.9,0.4,7.4C-252.5,705.9-255.9,705.5-255.3,703z"/>
			<path id="p1FyxJWHwI" class="st7" d="M-308.8,697.3c0.2-0.5,1-2.1,1.8-3.7c1.4-2.7,1.3-2.9-2-5.6c-3-2.4-3.2-3-2.1-4.4
				c1.7-2,0.3-9.6-3.7-19.5l-2.5-6.4l2.2-1.9c3.3-2.6,4.2-2.3,9.3,3c5.3,5.4,6.4,8.5,7.3,19.9c0.6,6.8,1.1,8.5,3.1,10.4
				c2.9,2.7,1.8,5.4-3.1,7.5C-302.1,698.1-309.4,698.5-308.8,697.3z M-302.9,677.9c-1.2-9-1.6-9.8-3.3-8.1c-0.9,0.9-0.9,2.2,0,5.7
				c0.7,2.5,1.2,5.6,1.2,6.8c0,2.2,1.9,5.1,2.8,4.2C-302,686.3-302.3,682.4-302.9,677.9z"/>
			<path id="pG7fYfZO3" class="st7" d="M-251.2,689.5c-0.3-1.4-0.1-2.5,0.4-2.5c0.6,0,0.8-0.7,0.4-1.5c-0.3-0.8,0-1.5,0.7-1.5
				s1.8-1.3,2.5-3c0.8-1.6,1.8-3,2.3-3c1.4,0,1.1,3.8-0.8,9.1C-247.7,692.5-250.4,693.7-251.2,689.5z"/>
			<path id="p1AO9W3YRk" class="st7" d="M-200,689.4c0-0.3,0.5-1.5,1.1-2.6c0.7-1.4,0.8-2.3,0.1-2.7s-0.4-2,0.8-4.6
				c1-2.2,1.6-4.3,1.4-4.7c-0.7-1.2-3.4-1-3.4,0.2c0,0.6-0.4,1-0.9,1c-1.1,0-9.2-12.3-9.5-14.6c-0.1-0.9-1.3-2.5-2.5-3.6
				c-1.3-1-2-1.8-1.6-1.8s0.2-0.7-0.6-1.6c-1.1-1.4-0.9-1.5,1.6-1.2c1.5,0.1,3.3,1.2,3.9,2.2c0.6,1.1,5,5.9,9.9,10.8
				c7,7,8.7,9.4,8.7,11.7c0,3.8-5,12-7.2,12.1C-199.2,690-200,689.7-200,689.4z"/>
			<path id="p9QygbOh2" class="st7" d="M-294.3,682.3c-0.4-0.3-0.7-1.2-0.7-1.9c0-2.3,10.3-14.4,12.7-15c7.2-1.8,7.2,4.3,0.2,12
				c-4.2,4.6-5.7,5.6-8.3,5.6C-292.2,683-294,682.7-294.3,682.3z"/>
			<path id="p1GjL9BIiG" class="st7" d="M-243,673.1c0-3,1.1-5.1,2.6-5.1c0.8,0,1.4,0.9,1.4,1.9c0,1.1,0.3,2.6,0.6,3.5
				c0.5,1.2,0,1.6-2,1.6C-242.3,675-243,674.5-243,673.1z"/>
			<path id="p10xavKYxC" class="st7" d="M-222,647.8c-1.4-1.4-4-3.3-5.7-4.2c-4.1-2.1-4.2-3.6-0.2-3.6c2.2,0,3.2,0.5,3.6,2
				c0.3,1.1,1.4,2,2.4,2c2.1,0,3.3,1.9,2.7,4.6C-219.4,650-219.9,649.9-222,647.8z"/>
			<path id="pGxwFPNWO" class="st7" d="M-235.3,639.6c-0.8-0.8-3.9-2.2-7-3.1c-3.1-0.9-6.6-2.4-7.9-3.4c-3.4-2.7-7.9-3.3-10.1-1.3
				c-1.7,1.5-1.7,1.3-1.5-2.4c0.3-3.3,0.7-4,2.8-4.2c3-0.5,20,7.7,20,9.5c0,0.7,1,1.3,2.3,1.3c2.5,0,4.7,1.7,4.7,3.7
				C-232,641.4-233.5,641.4-235.3,639.6z"/>
		</g>
	</g>
	<g id="l22I2xFF0K94ef6vSFhmm7B">
		<g>
			<path id="pK1gxEcmM" class="st8" d="M-220.3,708.3c-0.4-0.3-0.7-2-0.7-3.7v-3.1l2.5,2.9c1.4,1.6,2.5,3.3,2.5,3.8
				C-216,709.2-219.4,709.3-220.3,708.3z"/>
			<path id="p4DPTODd2" class="st8" d="M-227.3,698.3c-1.1-1-0.8-6.5,0.3-5.8c0.5,0.3,1.9,1.9,3,3.5l2.1,3h-2.4
				C-225.6,699-227,698.7-227.3,698.3z"/>
			<path id="pxFIfx8UT" class="st8" d="M-303.2,694.3c-1-0.2-1.8-1.2-1.8-2.2s-1.1-2.8-2.5-4.1c-1.8-1.6-2.2-2.7-1.5-3.5
				c0.7-0.9,0.6-3.1-0.5-7.1c-0.8-3.2-1.5-6.4-1.5-7.2c0-1.6,4.9-8.2,6.1-8.2c2.6,0,4.3,5.8,6.1,22c0.2,1.4,1.1,3.6,2,4.9
				c1.8,2.5,1.4,5.1-0.7,5.1c-0.7,0-1.9,0.2-2.7,0.4C-300.9,694.6-302.3,694.6-303.2,694.3z"/>
			<path id="pnKxQGlaE" class="st8" d="M-196.3,682c-0.3-1.3,0-2,1-2c0.9,0,1.3-0.6,0.9-1.5c-0.3-0.9,0-1.5,1-1.5
				c1.1,0,1.4,0.9,1.2,3.2C-192.6,684-195.4,685.3-196.3,682z"/>
			<path id="p8UxjoOJi" class="st8" d="M-294.5,681.1c-0.3-0.6,1.6-3.3,4.3-6.2c4.5-4.8,4.9-5.1,6.5-3.5c2.5,2.5,2.1,4-1.8,7.5
				C-289,681.9-293.3,683-294.5,681.1z"/>
			<path id="p11giIZ1y8" class="st8" d="M-203.1,668.9c-6.1-6-8-9.1-6.4-10.6c1-0.9,2.4,0.1,6.4,4.1c4.3,4.3,5.2,5.9,4.9,8.2
				l-0.3,2.8L-203.1,668.9z"/>
			<path id="p7dp2gRX7" class="st8" d="M-234.7,639.8c-3.7-2.6-4.2-3.8-1.5-3.8c2.5,0.1,5.4,2.6,5,4.4
				C-231.5,641.8-232,641.7-234.7,639.8z"/>
			<path id="pQAY3I0Nj" class="st8" d="M-242.2,636.3c-0.1-0.5-3.7-2.5-7.8-4.6c-6.9-3.5-7.5-3.7-8.7-2.1s-1.3,1.4-1.3-1.4
				c0-2.7,0.4-3.2,2.5-3.2c1.4,0,3.4,0.9,4.5,2s2.7,2,3.5,2s3,0.8,5,1.7c2.5,1.2,3.5,2.3,3.5,4C-241,637-241.5,637.7-242.2,636.3z"
				/>
		</g>
	</g>
	<g id="lloRiMphIyIRgNTesuzxcO">
		<g>
			<path id="pbfrb0hYK" class="st9" d="M-216.4,531.4c-0.3-0.9-0.6-3.8-0.6-6.5c0-4.5,0.2-4.9,2.4-4.9c2,0,2.4,0.6,3,4.6
				c1,7.7,0.9,8.4-1.8,8.4C-214.7,533-216.1,532.3-216.4,531.4z"/>
			<path id="py7ZA55La" class="st9" d="M-217.4,511.5c-0.3-0.9-2.1-2.5-4.1-3.6c-2.5-1.5-3.5-2.8-3.5-4.5c0-2.1,0.5-2.4,3.5-2.4
				c3.1,0,3.5,0.3,3.5,2.5c0,1.6,0.6,2.5,1.5,2.5c1,0,1.5,1.1,1.5,3.5C-215,513.1-216.3,514.2-217.4,511.5z"/>
			<path id="pacPpSh1L" class="st9" d="M-323,507.5c0-3.3,0.2-3.5,3.5-3.5s3.5,0.2,3.5,3.5s-0.2,3.5-3.5,3.5S-323,510.8-323,507.5z"
				/>
			<path id="p10SF6OfFg" class="st9" d="M-258,504c0-0.6,2.7-1,6.1-1c3.7,0,5.8,0.4,5.4,1c-0.3,0.6-3.1,1-6.1,1S-258,504.6-258,504z
				"/>
			<path id="pE5dVMepd" class="st9" d="M-325,499.6c0-2.1,0.6-3.6,1.5-4c0.8-0.3,1.5-1.2,1.5-2s0.8-2,1.8-2.5c1.5-0.9,1.5-1-0.5-1.1
				c-1.3,0-2.3-0.4-2.3-0.9s-0.7-1.1-1.6-1.3c-2.8-0.5,4.4-6.8,7.8-6.8c2.5,0,2.8,0.3,2.8,3.5c0,1.9-0.4,3.5-1,3.5c-0.5,0-1,0.5-1,1
				c0,0.6,0.9,1,2,1c3.4,0,2.4,7.7-1.6,11.7c-0.7,0.7-3.1,1.3-5.3,1.3C-324.9,503-325,502.9-325,499.6z"/>
			<path id="pdEOHU6nn" class="st9" d="M-266,497.8c0-3.7,0.1-3.8,3.5-3.8c3.3,0,3.5,0.2,3.5,3.4c0,3.1-0.3,3.4-3.5,3.8
				C-266,501.6-266,501.6-266,497.8z"/>
			<path id="pcQYSw5uL" class="st9" d="M-251,501l-6.5-0.7l7.3-0.1c4.2-0.1,7.2,0.2,7.2,0.8s-0.3,0.9-0.7,0.8
				C-244.2,501.7-247.4,501.4-251,501z"/>
			<path id="pYTgdQs4w" class="st9" d="M-227,498c0-1.3,0.5-1.8,1.5-1.4c2,0.8,1.9-0.6-0.2-2.2c-1.6-1.2-1.3-1.3,2.5-1.4
				c4.1,0,4.2,0,4.2,3.5c0,3.4-0.1,3.5-4,3.5C-226.3,500-227,499.7-227,498z"/>
			<path id="pbM9oZT9L" class="st9" d="M-247,495.6c0-3.7,1.2-4.6,6-4.6c2.6,0,2.8,0.3,2.8,4l0.1,4h-4.5
				C-246.9,499-247,499-247,495.6z"/>
			<path id="pkjjbKXQh" class="st9" d="M-234.2,495.3c1.2-0.2,3-0.2,4,0c0.9,0.3-0.1,0.5-2.3,0.4
				C-234.7,495.7-235.5,495.5-234.2,495.3z"/>
			<path id="putwP7I62" class="st9" d="M-236,490.5c0-2.2,0.4-2.5,4-2.5s4,0.3,4,2.5c0,2.3-0.4,2.5-4,2.5S-236,492.8-236,490.5z"/>
			<path id="p2sgrhl04" class="st9" d="M-220.1,490.5c-1.3-1.3-3-2.5-3.7-2.5s-2.7-0.7-4.3-1.6c-2.8-1.4-3.1-2-2.7-5.4
				c0.3-3.5,0.1-3.9-2.4-4.4c-2-0.4-2.8-1.2-2.8-2.6c0-2.2,2.8-2.5,4.2-0.5c0.5,0.6,0.8,0.3,0.8-0.7s-1-2.6-2.2-3.8l-2.2-2h3.4
				c1.9,0,4.9,1,6.7,2.3c2.7,1.8,3.3,2.9,3.3,5.7c0,3.2,0.4,3.7,3.5,4.9c1.9,0.7,3.5,1.6,3.5,2s1.1,1.3,2.5,1.9
				c2.1,1,2.5,1.9,2.5,5.2c0,4,0,4-3.9,4C-216.7,493-218.4,492.3-220.1,490.5z M-226.7,474.7c0.3-0.8-0.3-1.4-1.4-1.4
				c-2.1-0.2-2.6,1.3-0.6,2c0.6,0.3,1.3,0.6,1.3,0.6C-227.3,476-227,475.4-226.7,474.7z"/>
			<path id="pKhmGjzXb" class="st9" d="M-297.3,489.3c-0.4-0.3-0.7-2.1-0.7-4c0-3,0.3-3.3,3-3.3c1.7,0,3-0.5,3-1.2s1.3-2.4,3-3.8
				l3-2.5l-5.1,0.1c-4.2,0.2-5.6,0.7-7.4,2.8c-1.5,1.8-3.2,2.6-5.4,2.6c-2.9,0-3.1-0.2-3.1-3.5c0-1.9,0.5-3.5,1-3.5c0.6,0,1-0.9,1-2
				s0.5-2,1-2c0.6,0,1-0.6,1-1.4c0-2,4.5-4.6,8-4.6c2.4,0,3,0.4,3,2.1c0,1.8,0.2,1.9,1.5,0.9c0.8-0.7,1.5-1.8,1.5-2.5
				s1.1-1.6,2.5-1.9c1.4-0.4,2.5-1.1,2.5-1.6c0-0.6,1.1-1,2.5-1s2.5-0.4,2.5-1c0-0.5,1.8-1,4-1c2.9,0,4,0.4,4,1.5
				c0,0.8-0.7,1.5-1.5,1.5s-1.5,0.4-1.5,0.8c0,0.5-1,1.4-2.2,2c-1.9,0.9-1.7,0.9,1.6,0.5c2.8-0.5,3.7-0.3,3.2,0.5
				c-0.4,0.7-1.3,1.2-1.9,1.2c-0.7,0-2.1,1.3-3.2,2.9c-1.1,1.7-2.9,3.4-4,4c-1.8,0.9-1.8,1,0.7,1c3.2,0.1,4.9,2.1,1.8,2.1
				c-1.6,0-2,0.5-1.6,1.5c0.3,1-0.3,1.7-1.9,2.1c-1.3,0.3-3,1.3-3.6,2.1c-0.7,0.8-2.9,2.1-4.8,3c-4.8,2.1-2.7,2.7,3.2,0.9
				c4.1-1.2,4.6-1.2,3.6,0c-0.6,0.8-2.4,1.4-4,1.4c-2.2,0-2.9,0.5-2.9,2c0,1.6-0.7,2-3.3,2C-295.2,490-297,489.7-297.3,489.3z"/>
			<path id="pzKX1fKla" class="st9" d="M-281,483.6c0-1.4,2.5-2.6,6.7-3.2c1.3-0.1,3.1-0.7,4-1.3c1.7-1,1.7-1,0.1-1.1
				c-1.7,0-2.6-1.9-1-2.1c12.3-1,12.2-1,12.2,0.8c0,3.2-1.4,4.2-7,4.9c-3,0.4-6.1,1.3-6.8,2.1C-274.6,485.5-281,485.4-281,483.6z"/>
			<path id="p13u0HjHu5" class="st9" d="M-274.2,473.3c0.6-0.2,1.2-1.1,1.2-1.9c0-2.1,12.6-2,13.4,0.2c0.3,0.9,0.6,1.7,0.6,1.9
				s-3.7,0.3-8.2,0.3C-271.8,473.8-274.9,473.6-274.2,473.3z"/>
			<path id="pSDcWZMRT" class="st9" d="M-253.3,470.3c-0.4-0.3-0.7-2.4-0.7-4.5c0-3.7,0.1-3.8,3.4-3.8c1.9,0,4.1,0.3,5,0.6
				c2.2,0.8,2.1,4.4-0.1,4.4c-1.7,0.1-1.7,0.1,0,1.1c0.9,0.5,1.7,1.4,1.7,1.9C-244,471.1-252.3,471.4-253.3,470.3z"/>
		</g>
	</g>
	<g id="l5cyEcpMYJ0IpstGUvLQnCI">
		<g>
			<path id="p18tbw5bow" class="st10" d="M-247.7,598.3c-0.7-0.2-1.3-2-1.3-3.9c0-3,0.3-3.4,2.5-3.4c1.8,0,2.6,0.7,3.1,2.5
				c0.5,2,0.9,2.3,2,1.4s1.4-0.6,1.4,1.5c0,2.3-0.4,2.6-3.2,2.5C-245,598.9-247.1,598.6-247.7,598.3z"/>
			<path id="psxbJeZgr" class="st10" d="M-216,535c0-3.8,0.1-4,3.8-4.6l3.8-0.6l-0.4-12.6c-0.3-7-0.8-12.8-1.3-13s-0.9-1.9-0.9-3.8
				v-3.5l4.7,0.3l4.6,0.3l1.6,5.5c0.8,3,1.8,5.7,2.3,5.8c1.3,0.6,0.9,7-0.4,7.5c-0.8,0.3-0.9,0.6-0.2,0.6c0.8,0.1,0.9,1.5,0.3,4.9
				c-1.5,7.7-1.8,8.2-5,8.2c-2.6,0-2.9,0.3-2.9,3.3c0,2.5-0.6,3.5-2.7,4.5c-1.5,0.6-3.7,1.2-5,1.2C-215.7,539-216,538.5-216,535z"/>
			<path id="p3r3fQZbQ" class="st10" d="M-328,526.6c0-2.5-0.5-4.8-1.1-5.2c-1.5-0.9-0.4-10.6,1.6-14.5c0.9-1.7,2.4-2.9,3.5-2.9
				s2-0.6,2-1.3c0-3.2,6.6-5.9,9.6-3.9c1.7,1.1-0.9,13.8-4.6,22.2c-1.6,3.7-3,7.5-3,8.4c0,1.2-1,1.6-4,1.6h-4V526.6z"/>
			<path id="p9IzQDOTy" class="st10" d="M-217,520.5c0-5.6,0-5.6,2.8-5.3c2.5,0.3,2.7,0.6,2.7,5.3c0,4.7-0.2,5-2.7,5.3
				C-217,526.1-217,526.1-217,520.5z"/>
			<path id="p1CtivuE4y" class="st10" d="M-224.1,506.5c-4.1-2.1-9.5-3.5-20.1-5l-3.8-0.6v-8.8c0-5.9,0.4-9.2,1.3-9.9
				c1.6-1.3,17.8-1.3,19.5,0c0.7,0.6,1.2,3.4,1.2,6.5c0,5.2-0.1,5.4-2.2,4.7c-1.3-0.4-2.6-1.2-3-1.8c-0.6-0.8-1-0.8-1.5,0
				c-0.5,0.6-2.1,1.6-3.8,2.2c-2.9,1-2.9,1,1.6,1.1c6.1,0.1,10.9,1.9,10.9,4c0,1.3,0.8,1.6,4,1.3c3.9-0.4,4-0.3,4,2.6
				c0,3.9-0.9,6.2-2.4,6.2C-219,508.9-221.6,507.8-224.1,506.5z"/>
			<path id="pOYuFncuF" class="st10" d="M-263.5,504.3c-1.1-0.2-3-0.6-4.2-0.9c-1.6-0.3-2.3-1.2-2.3-2.9c0-1.4,0.5-2.5,1-2.5
				c2.2,0,0.9-3.8-1.5-4.4c-2.2-0.6-2.5-1.2-2.5-5.1c0-3.4,0.5-4.7,1.9-5.5c2.2-1.1,8-1.3,10.5-0.4c2.1,0.8,2.1,6.7,0.1,8.4
				c-1.1,0.9-1.3,1.6-0.5,2.4c0.5,0.5,1,2.5,1,4.3c0,2.9-0.3,3.3-2.7,3.4l-2.8,0.1l2.8,1c1.5,0.5,2.7,1.4,2.7,1.9
				C-260,505-260.2,505-263.5,504.3z"/>
			<path id="p12VFgpjAa" class="st10" d="M-327.6,493.5c-0.6-1.3,3.5-9.9,4.3-9.1c0.2,0.2,1.5-0.7,2.8-2c1.7-1.7,3.5-2.4,6.3-2.4
				c3.4,0,4.1-0.4,4.6-2.4c0.3-1.3,1.7-3.1,3.1-4c1.5-1,2.5-2.6,2.5-4.1c0-5.1,14.3-11.3,30.1-13.1c4.5-0.5,4.9-0.4,4.9,1.5
				c0,1.7-0.6,2.1-3.5,2.1c-2.5,0-3.5,0.4-3.5,1.6c0,1.1-0.6,1.4-2,0.9c-1.2-0.4-2.6,0-3.6,0.9c-0.8,0.9-2.1,1.6-2.9,1.6
				c-0.7,0-1.5,0.9-1.8,2s-1.7,2.4-3.1,3c-3,1.1-3.5,2.1-0.8,1.3c1.6-0.4,1.8,0.2,1.7,5.4c-0.1,5.4-0.3,5.9-3.3,7.4
				c-3.6,1.9-3.2,3.2,0.5,1.8c3.2-1.2,3.2-1.2,2.6,2.9l-0.5,3.2h-6.4c-3.6,0-6.4-0.4-6.4-1c0-0.5-0.5-1-1-1c-0.6,0-2.1-0.9-3.2-2
				c-2.1-2-5.9-1.9-6.6,0.1c-0.2,0.5-1.2,0.9-2.3,0.9c-1,0-1.9,0.4-1.9,1c0,0.5-0.8,1.9-1.7,3C-320.8,495.4-326.8,495.8-327.6,493.5
				z M-295,467c0-1.3-5,1.1-5,2.4c0,0.6-0.9,2.2-2,3.6c-3.5,4.5-2.1,4.3,2.5-0.4C-297,470-295,467.5-295,467z"/>
			<path id="p19p1X5aWW" class="st10" d="M-215.3,486.9c-0.9-0.5-2.2-0.7-2.7-0.4c-0.6,0.4-0.7-0.1-0.3-1.2c0.3-1,0.3-1.5-0.1-1.1
				c-0.4,0.3-2.2-0.8-4-2.5c-1.8-1.8-4.4-4-5.7-5l-2.4-1.8l2.8,0.6c3.4,0.9,3.4-0.3,0-3.5l-2.6-2.5l2.6-0.3
				c2.8-0.3,9.1,3.4,15.9,9.6c2.7,2.5,3.8,4.2,3.8,6.3c0,2.5-0.4,2.9-2.7,2.9C-212.3,488-214.3,487.5-215.3,486.9z"/>
			<path id="pIvEAQ7KV" class="st10" d="M-283,485c0-1.1,0.1-2,0.3-2c0.1,0,1.7-0.4,3.5-0.9c3.1-0.9,3.2-0.9,3.2,2
				c0,2.7-0.3,2.9-3.5,2.9C-282.3,487-283,486.6-283,485z"/>
			<path id="p4FbCsK1b" class="st10" d="M-247,470.9c0-2.4,0.4-2.9,1.8-2.5c0.9,0.3,2.9,0.8,4.5,1.2c5.2,1.2,2.8,4.4-3.4,4.4
				C-246.7,474-247,473.7-247,470.9z"/>
			<path id="pUiUsTSHG" class="st10" d="M-281.4,467.1c-0.7-1.1,5.4-4.1,8.3-4.1c2.7,0,2.7,1.7,0.1,2.5c-1.1,0.3-2,1.1-2,1.6
				C-275,468.3-280.7,468.3-281.4,467.1z"/>
			<path id="ptlXMKVu7" class="st10" d="M-248.7,465.8c-1.3-0.6-2.3-2-2.3-3s-0.7-2.1-1.5-2.4c-1.9-0.8-2-3.4,0-3.4
				c0.7,0,3.7,0.5,6.5,1.1c5,1.1,5.1,1.1,4.4,4.4c-0.5,2.9-0.3,3.4,1.8,3.8c1.2,0.2,0.3,0.5-2.2,0.5S-247.5,466.4-248.7,465.8z"/>
		</g>
	</g>
	<g id="lh7jEX6JU0ZFtTwUPsYCeY">
		<g>
			<path id="pD75Lqtik" class="st11" d="M-216.5,531.3c-0.5-10.1-0.4-13.8,0.4-14.1c0.7-0.2,0.8-0.8,0.3-1.5
				c-0.5-0.7-1.2-2.3-1.5-3.8c-0.5-1.9-2.2-3.2-6.7-5.4c-6-2.9-8.8-5-7.8-6.1c0.3-0.3,1.3,0.3,2.2,1.2c2.1,2.1,3.4,0.9,1.8-1.6
				c-2-3.3-1.5-4.1,2.6-3.5l3.7,0.5l-4.2-2.1c-4-2.1-4.2-2.5-3.8-6.1c0.2-2.4-0.1-3.8-0.8-3.9c-11.8-0.9-16.6,0.8-14,5.1
				c0.9,1.4,1,2.7,0.3,4.5c-1.3,3.5-1.3,3.5,1,3.5c1.3,0,1.8,0.5,1.4,1.5c-0.5,1.3-2.7,1.5-13.8,1.3l-13.1-0.3l-0.5-3.5
				c-0.4-2.7-1-3.6-2.7-3.8c-2-0.3-2.3-1-2.4-4.5c0-2.3-0.3-3.6-0.6-2.9c-0.2,0.6-1.3,1.2-2.4,1.2s-3,0.6-4.2,1.4
				c-2.8,1.8-12.4,3.6-19.4,3.6h-5.3v-4.6c0-3.4,0.3-4.3,1.3-3.7c0.6,0.4,1.9,0.8,2.7,0.8c2.3,0,4,1.4,3.4,2.9
				c-0.3,0.9,0.6,1.3,3,1.4s3.4-0.3,3-1.1c-0.3-0.8,3.4-2.4,10.8-4.8l11.3-3.5l0.3,2.3c0.5,3.2,2.2,2.9,3.5-0.7c0.6-1.6,1.7-3,2.3-3
				c0.7,0,1.4-0.7,1.8-1.5c0.4-1,2-1.5,5.2-1.5c7,0,5-0.7-3.8-1.3c-8.5-0.6-9.8-1.1-9.8-3.4c0-1.2-0.8-0.9-3.5,1.1
				c-1.9,1.5-5.1,3.4-7.1,4.2c-2,0.8-3.4,1.8-3,2.1c0.9,0.9-5.6,6.2-7,5.6c-0.8-0.3-1.2-2.4-1.2-5.9c0.1-4.5,0.5-5.5,2.2-5.9
				c4.2-1.2,9.5-3.8,9.1-4.5c-0.2-0.4,1.3-1.5,3.3-2.4c2.6-1.3,7.2-2,15.4-2.4c12.5-0.5,15.1-2.1,4-2.4c-6.3-0.1-6.1-0.2,2.8-0.8
				c11.4-0.9,13.6-0.5,14.4,2.3c1.3,4.9,0.8,5.9-2.6,5.5c-1.8-0.3-4.1-0.9-5.2-1.3c-1.4-0.6-1.8-0.5-1.4,0.6
				c0.2,0.8,1.7,1.5,3.2,1.7s2.9,0.9,3.2,1.6c0.3,0.8,1.5,1.1,2.8,0.9c1.3-0.3,4.9,0.8,8.5,2.7c3.6,1.8,7,2.8,8.1,2.5
				c1.8-0.6,7,3.2,7,5.2c0,1.6,3.5,4.3,5.5,4.3c1.4,0,0.4-1.5-3.8-5.5c-5.1-5-6.7-6-8.9-5.6c-0.5,0-0.8-0.3-0.8-0.9
				c0-1.9,5.5-1,8.3,1.4c1.5,1.3,2.7,2.8,2.7,3.3c0,1.5,3.5,4.3,5.3,4.3c0.9,0,1.7,0.7,1.7,1.5s1.4,3.9,3,6.8
				c2.5,4.5,3,6.4,2.9,11.8c-0.1,6.3-0.1,6.4-1.3,2.7c-0.6-2-1.3-3.9-1.6-4.1c-0.4-0.4-0.5,18.8-0.1,23.1c0,0.6,0.8,1.2,1.6,1.2
				c1.2,0,1.3-0.3,0.3-1.9c-0.8-1.4-0.9-2.8-0.1-5.2l1.1-3.4l0.1,3.8c0.1,2,0.6,3.7,1.1,3.7c1.6,0,1.2,6-0.5,7.6
				c-0.8,0.9-1.5,2.4-1.5,3.4s-0.9,2.1-1.9,2.5c-1.1,0.3-2.8,2.6-3.8,5c-1.5,3.7-2.3,4.5-4.4,4.5h-2.7L-216.5,531.3z M-214.8,518.8
				c-0.9-0.9-1.2-0.4-1.1,2.3c0,3.2,0.1,3.3,1.1,1.1C-214,520.5-214,519.6-214.8,518.8z M-263.5,488.2c1.8-2.2,1.8-2.3,0-1.6
				c-1.3,0.5-1.6,0.4-1.1-0.4c1-1.7-1.7-1.5-4,0.3c-1,0.8-1.4,1.5-0.9,1.4c2.4-0.3,3.5,0.2,3.5,1.8c0,0.9,0.1,1.4,0.3,1.2
				C-265.6,490.7-264.6,489.5-263.5,488.2z M-213,489c0-0.6-1.1-1.6-2.5-2.2s-2.5-1.5-2.5-2s-0.4-0.6-1-0.3c-0.5,0.3-1,0.2-1-0.4
				c0-1.1-6.9-3.6-7.7-2.7c-0.3,0.3,1.6,1.5,4.2,2.7c2.7,1.2,5.8,3,6.9,4C-214.4,490.2-213,490.5-213,489z"/>
			<path id="pLAn0lENh" class="st11" d="M-328,529.3c0-4.3-1.1-7.3-2.6-7.3c-2,0-1.2-13.6,1.2-21.7c1.9-6.3,1.9-6.3,5.7-6.3
				c4.4,0,6.1,2.5,3.2,4.6c-1.4,1-1.5,1.4-0.4,1.4c0.8,0,2.3-1.1,3.3-2.5c1.9-2.6,5-3.3,6.1-1.5c0.4,0.6,0.4,2.9,0,5
				c-0.5,3.2-1.1,4-2.8,4c-1.8,0-1.9-0.2-0.7-1c1.3-0.9,1.3-1.1,0-2c-1.6-1-4,1.2-4,3.7c0,0.7-0.9,1.3-2,1.3c-2.1,0-3.9,2.7-5,7.6
				c-0.6,2.5-0.3,3.5,1.2,4.9c1.1,0.9,1.7,2.3,1.4,3.1c-0.3,0.9,0.1,1.4,1.1,1.4c0.9,0,1.3-0.3,1-0.7c-0.4-0.3,0.1-1.2,1.1-1.9
				c1.5-1.2,1.5-1.5,0.2-2.4c-1.3-0.8-1.2-1,0.5-1c1.4,0,1.6-0.3,0.8-1.1c-1.4-1.4-0.6-3.9,1.3-3.9c0.8,0,1.1-0.6,0.8-1.5
				c-0.4-0.8-0.1-1.5,0.5-1.5c1.8,0,1.3,5.3-1.1,11.1c-1.2,3-2.5,5.8-3,6.3c-0.4,0.6-0.8,1.8-0.8,2.8c0,1.4-0.8,1.8-3.5,1.8
				C-327.6,532-328,531.7-328,529.3z M-323,526.5c0-0.8-0.4-1.5-1-1.5c-0.5,0-1,0.7-1,1.5c0,0.8,0.5,1.5,1,1.5
				C-323.4,528-323,527.3-323,526.5z"/>
			<path id="pCKPBFKwO" class="st11" d="M-293,468.9c0-1.5,2.6-3.9,4.4-3.9c2.1,0,3,1.8,1.6,3.5S-293,470.5-293,468.9z"/>
			<path id="pWRY7ubFH" class="st11" d="M-294.6,463.5c0.8-0.8,2.5-1.5,3.8-1.5c2,0.1,1.8,0.3-1.1,1.5
				C-296.1,465.4-296.5,465.4-294.6,463.5z"/>
		</g>
	</g>
	<g id="l2ZnuVELKlyFeNzaHFkx6ms">
		<g>
			<path id="p8yG03PA1" class="st12" d="M-267.3,729.3c1.3-3.3,4.5-8.3,5.4-8.3c1.5,0,1,5.4-0.7,7.8
				C-264.5,731.5-268.3,731.9-267.3,729.3z"/>
			<path id="pn9RRPGwi" class="st12" d="M-227.4,697.8c-0.9-1.2-1.6-3.4-1.6-4.8c0.1-2.4,0.2-2.3,3.5,1.5c1.9,2.2,3.5,4.3,3.5,4.8
				C-222,700.9-226,699.8-227.4,697.8z"/>
			<path id="puiZ3FO9j" class="st12" d="M-305.8,684.8c-0.7-1.3-1.6-3.7-2.1-5.5c-0.9-3-0.7-3.4,2.5-5.4c1.9-1.2,3.7-1.9,4-1.6
				c0.2,0.2,0.7,2.7,1.1,5.4C-299.4,685.4-303,690.1-305.8,684.8z"/>
			<path id="p1FnHatUWC" class="st12" d="M-239.5,662.1c1.6-3.1,3.5-4.9,3.5-3.2c0,2.4-2.1,6.1-3.5,6.1S-240.9,664.7-239.5,662.1z"
				/>
			<path id="pjRLY9Qw7" class="st12" d="M-222.9,646.6c-0.7-0.8-2.7-2.2-4.6-3.1c-3.7-1.7-4.7-4.5-1.7-4.5c3.4,0,8.2,3.8,8.2,6.5
				C-221,648.4-221.3,648.5-222.9,646.6z"/>
			<path id="pC5s3TmjY" class="st12" d="M-242,636.2c0-0.4-2-1.8-4.5-3c-4.5-2.2-5.9-4.2-3-4.2c3.2,0,9.5,4,9.5,6c0,1.1-0.4,2-1,2
				C-241.5,637-242,636.6-242,636.2z"/>
		</g>
	</g>
	<g id="l5cKzijxMB6EWn1R65qFuyo">
		<g>
			<path id="pa1GyZXG6" class="st13" d="M-285.7,623.3c-0.7-0.2-1.3-2-1.3-3.9c0-3-0.3-3.4-2.5-3.4c-2,0-2.5-0.5-2.5-2.5
				c0-1.8-0.5-2.5-2-2.5c-1.6,0-2-0.7-2-3.6c0-3.6,0.1-3.6,3.1-3c1.7,0.3,3.6,0.6,4.1,0.6s1.3,1,1.8,2.3c0.6,1.4,0.9,1.6,0.9,0.6
				c0.2-3.8,12.4-5.5,15.4-2.1c1,1,1.7,2.3,1.7,2.8s2.4,0.9,5.2,0.9h5.3l0.3,3.8c0.3,3,0,3.7-1.5,3.7c-1,0-2.9,1.6-4.2,3.5l-2.4,3.5
				l-9.1-0.1C-280.4,623.9-285.1,623.6-285.7,623.3z"/>
			<path id="pqMWblqtu" class="st13" d="M-254,608.7c0-3.6,2.5-6.7,5.3-6.7c1.4,0,1.7,1,1.7,5v5h-3.5
				C-253.8,612-254,611.8-254,608.7z"/>
			<path id="p1HnVf1RJX" class="st13" d="M-306.7,608c-1.7-0.7-2.3-1.7-2.3-4.2c0-5,1.1-6,6.1-5.6l4.4,0.3l0.3,5.3l0.3,5.2l-3.3-0.1
				C-303,608.9-305.5,608.5-306.7,608z"/>
			<path id="p7Eie8obJ" class="st13" d="M-241.7,599.3c-2.5-0.3-3.3-0.9-3.3-2.4c0-1.2,0.4-1.7,1.1-1.4c0.5,0.4,1.9-0.1,2.9-1
				s2.3-1.4,2.8-1.1s1.7-0.3,2.7-1.4c1-1.1,2.9-2,4.2-2c2,0,2.3,0.5,2.3,3.5c0,1.9-0.4,3.5-1,3.5c-0.5,0-1,0.7-1,1.5
				C-231,600-234,600.2-241.7,599.3z"/>
			<path id="pQK2HfFe8" class="st13" d="M-310,595c0-1.5-0.7-2-2.5-2c-2.1,0-2.5-0.5-2.5-3c0-2.7-0.3-3-3-3c-2.8,0-3-0.3-3-3.5
				c0-3.3,0.2-3.5,3.5-3.5c3.2,0,3.5,0.2,3.5,3c0,2.6,0.4,3,2.6,3c1.7,0,2.8,0.6,3.1,2c0.3,1.3,1.4,2,2.9,2c2.1,0,2.4,0.5,2.4,3.5
				c0,3.3-0.2,3.5-3.5,3.5C-309.3,597-310,596.6-310,595z"/>
			<path id="pPDSIJZt7" class="st13" d="M-257,596c0-0.6,0.7-1.3,1.5-1.6c2-0.8,1.9-2.4-0.1-2.4c-1.2,0-1.4-0.7-0.9-3.2
				c0.4-1.8,0.9-3.5,1.1-3.7c0.2-0.2,2.4,0.4,4.8,1.3c3.1,1.2,5,2.7,6.1,4.8c1.8,3.7,1.9,4.1,0.3,3.2c-0.6-0.4-1.7,0.1-2.5,1.2
				c-1.4,1.8-1.5,1.8-3.4-0.6c-2-2.4-2-2.4-1.4-0.2c0.6,1.9,0.3,2.2-2.4,2.2C-255.6,597-257,596.5-257,596z"/>
			<path id="p1AaD5yPmm" class="st13" d="M-269.7,591.8c-2.7-0.9-3.3-1.6-3.3-3.9V585h7.1h7l-0.3,3.8c-0.3,3.5-0.5,3.7-3.8,3.9
				C-264.9,592.8-268,592.4-269.7,591.8z"/>
			<path id="pxJKu1b4d" class="st13" d="M-298.4,589.5c0.4-0.8,0.2-1.5-0.4-1.5s-1.3,0.6-1.5,1.3c-0.3,0.7-0.6,0.5-0.6-0.5
				c-0.1-1.1-0.9-1.8-2.2-1.8c-3.3,0-1.9-3.3,2.4-5.4c2.6-1.2,4.8-1.6,7.2-1.2c3.1,0.6,3.5,1.1,3.5,3.6c0,2.8-0.3,3-3.7,3
				c-3.1,0.1-3.5,0.3-2,1.1c2.5,1.4,2.1,2.9-0.8,2.9C-298.3,591-298.8,590.6-298.4,589.5z"/>
			<path id="pYvVvfjs3" class="st13" d="M-287.7,589.3c-0.7-0.2-1.3-1.8-1.3-3.4c0-2.6,0.3-2.9,3.5-2.9c3.3,0,3.5,0.2,3.5,3.5
				c0,3-0.3,3.5-2.2,3.4C-285.5,589.9-287.1,589.6-287.7,589.3z"/>
			<path id="pD0LxhW1u" class="st13" d="M-216,541.3c0-2.7,0.5-5.5,1-6.3c0.7-1.1,1-0.3,1,3v4.5l1.9-4.2c1.1-2.3,2.9-4.8,4-5.5
				c1.2-0.7,2.1-2,2.1-2.8c0-0.9,0.9-2.3,2-3.3c2-1.6,2-1.6,2,2.3c0,2.2-0.4,4-1,4c-0.5,0-1,0.7-1,1.5c0,0.8-0.4,1.5-0.8,1.5
				c-1,0-4.2,6.5-4.2,8.5c0,1-1.1,1.5-3.5,1.5h-3.5V541.3z"/>
			<path id="phQqGyU6K" class="st13" d="M-327.3,532.3c-0.4-0.3-0.7-1.7-0.7-2.9c0-1.3-0.4-2.6-1-2.9c-0.5-0.3-1-2.1-1-4
				s-0.5-3.7-1.1-4.1c-1.3-0.8-0.6-12.1,1-15.1c0.5-1,1.5-3.8,2.2-6.1c1.2-4.3,1.4-4.4,5.1-4c3.6,0.3,3.8,0.2,3.8-2.4
				c0-2.5,0.3-2.8,3.5-2.8c3.4,0,3.5,0.1,3.5,4c0,3.4-0.3,4-2.1,4c-1.5,0-1.9-0.5-1.5-1.5c0.4-1.3,0.2-1.4-1.4-0.5
				c-1.1,0.6-2,1.8-2,2.7c0,1.2-0.7,1.4-2.8,1c-2.5-0.5-3-0.2-4.1,2.9c-1.9,5.4-2.6,14.2-1.2,16.7c0.7,1.3,1.6,4.5,2,7.2
				c0.7,4.1,1,4.6,1.6,2.8c1-3.2,2.5-1.8,2.5,2.3c0,3.1-0.3,3.4-2.8,3.4C-325.4,533-327,532.7-327.3,532.3z"/>
			<path id="p1AlTTF7TN" class="st13" d="M-216.9,517.2c-0.1-4.9-0.5-6.6-2.1-7.9c-2.6-2.2-2.5-3.3,0.1-2.6
				c2.5,0.7,7.9,7.8,7.9,10.4c0,2.4-1.8,3.3-3.5,1.9c-1.1-0.9-1.4-0.6-1.8,1.7C-216.5,522.2-216.8,520.7-216.9,517.2z"/>
			<path id="p13PSWpUZ3" class="st13" d="M-318.7,516.4c-0.4-1,0-2.2,1-2.9c0.9-0.7,1.4-1.5,1-1.8c-0.3-0.4-0.1-0.7,0.5-0.7
				c0.7,0,1.2,1.5,1.2,3.5C-315,518.3-317.5,519.5-318.7,516.4z"/>
			<path id="pn9DY31b7" class="st13" d="M-321.1,505.8c-1.1-0.7-1.1-1.1-0.1-1.5c0.6-0.2,1-0.9,0.7-1.3c-0.5-0.9,4.2-6.6,4.9-5.9
				c0.2,0.2-0.7,2.5-1.9,5.1C-319.2,505.8-319.9,506.6-321.1,505.8z"/>
			<path id="pTvuprmlq" class="st13" d="M-217.8,501.7c-1.2-1.3-2.2-2.8-2.2-3.3c0-0.6-2.2-2.1-5-3.4c-2.7-1.3-5-2.9-5-3.7
				c0-1.6,1-1.6,4.5-0.3c3,1.1,11.5,9.8,11.5,11.7C-214,504.6-215.4,504.3-217.8,501.7z"/>
			<path id="pETf2wqjq" class="st13" d="M-204,502.6c0-0.8-1.6-4.5-3.5-8.2s-3.5-7.5-3.5-8.5c0-0.9-0.6-2-1.2-2.2
				c-0.7-0.3,0.2-0.6,2-0.6c2.4-0.1,3.2,0.3,3.2,1.7c0,0.9,0.7,2.6,1.5,3.6c0.8,1.1,1.5,3.2,1.5,4.8c0,1.8,0.5,2.8,1.5,2.8
				c1.1,0,1.5,1.1,1.5,4s-0.4,4-1.5,4C-203.3,504-204,503.4-204,502.6z"/>
			<path id="pUKkHPUJD" class="st13" d="M-272.7,499.2c-0.6-0.4-1.5-3.5-1.9-7c-0.3-3.4-1.1-6.2-1.5-6.2c-0.5,0-0.9,0.4-0.9,0.8
				c0,1.6-7.1,4.2-11.5,4.2c-2.5,0-4.5,0.5-4.5,1c0,0.6-2.8,1-6.4,1c-4.9,0-6.5-0.4-7-1.6c-0.9-2.3-0.7-8.4,0.2-8.4
				c1.4,0,3.2,2.3,3.2,4.2c0,1.5,0.8,1.8,4.6,1.8c4.7,0,14-2.6,15-4.1c0.3-0.5,1.6-0.9,3-0.9c1.3,0,2.4-0.3,2.4-0.8
				c0-2.5,22.4-7.9,27.9-6.7c4.9,1.1,3.8,3.1-2.1,3.8c-5.2,0.7-17.9,6.3-18.5,8.3c-0.4,1.4,6.4,3.4,13.6,4.1l5.6,0.5l-4.5-2.5
				c-2.5-1.4-4.6-3.2-4.8-4.1c-0.4-1.9,0.2-2,3-0.5c1.2,0.6,4.9,1.9,8.2,2.8c4,1.1,6.1,2.1,6.1,3.1c0,0.9-1,1.5-2.3,1.6
				s-2.8,0.6-3.5,1.3c-0.6,0.6-2.8,1.1-4.8,1.1c-6.6,0-9.6,2.5-4.1,3.3c1.5,0.2-0.9,0.5-5.3,0.5C-267.9,499.9-272,499.6-272.7,499.2
				z M-262,497.5c0-0.9-0.9-1.5-2.1-1.5c-1.8,0-1.9,0.2-0.9,1.5c0.7,0.8,1.6,1.5,2.1,1.5S-262,498.3-262,497.5z"/>
			<path id="p03LJLrDi" class="st13" d="M-253.3,497.9c0.8-0.8,1.9-0.8,4-0.1c2.8,1,2.8,1-1.1,1.1
				C-253.3,499-254.1,498.7-253.3,497.9z"/>
			<path id="p03ZXzwP0" class="st13" d="M-240.3,477.6c-2.1-1.7-10.6-3.3-21.2-4.1c-6.6-0.5-9.6-0.2-17.2,1.8
				c-10.2,2.6-13.1,2.2-8.7-1.2c1.4-1.1,3.2-2.1,3.8-2.1s3.3-1.6,6-3.5c5.8-4.1,14.5-7.2,17.2-6c1.6,0.6,1.1,1.1-2.8,2.9
				c-2.6,1.1-4.8,2.4-4.8,2.7c0,0.3,2.2,0.7,4.9,0.8c10.5,0.3,26.1,5.8,26.1,9.2C-237,479.4-238.2,479.2-240.3,477.6z"/>
			<path id="pPByzkd8j" class="st13" d="M-244,466c0-0.5-0.6-1-1.3-1c-1.5,0-6.7-4.1-6.7-5.3c0-0.4,2-0.7,4.4-0.7
				c3.6,0,4.6,0.4,5.1,2c0.3,1.1,1.3,2,2.1,2s1.4,0.9,1.4,2c0,1.5-0.7,2-2.5,2C-242.9,467-244,466.6-244,466z"/>
			<path id="p1GawqARuW" class="st13" d="M-263.2,459.3c1.2-0.2,3.2-0.2,4.5,0c1.2,0.2,0.2,0.4-2.3,0.4S-264.5,459.5-263.2,459.3z"
				/>
		</g>
	</g>
	<g id="l14JWuSMfp1LCipAr7YyBBq">
		<g>
			<path id="p18WGGhbox" class="st14" d="M-288.8,623c-2.4-1.1-4.6-2.9-4.9-3.9c-0.3-1.1-1.8-2.4-3.4-3c-1.6-0.5-2.9-1.4-2.9-2
				c0-0.5-1.2-1.6-2.7-2.3c-1.6-0.7-3.2-2.3-3.8-3.6c-0.5-1.2-1.5-2.2-2.2-2.2c-1.9,0-6.3-6.5-6.3-9.3c0-1.9-0.5-2.7-1.8-2.7
				c-3.8,0-6.9-12.2-3.9-15.4c1-1.2,1.5-1.2,3,0.1c1.4,1.3,1.7,1.4,1.7,0.2c0.1-0.8,0.9,0.2,1.9,2.1c1.1,1.9,2.4,3.5,3,3.5
				c0.5,0,1.6,0.8,2.4,1.9c1.3,1.8,1.5,1.7,3.6-1.2c3.7-5.3,7.3-5.7,21.1-2.8c7.9,1.7,15.2,2.6,21.3,2.6c10.8,0,17.1,2.2,18.7,6.5
				c1.3,3.4,1.3,3.5-0.7,2.9c-1-0.2-0.8,0.1,0.5,0.7c1.9,1,2.5,0.9,3.6-0.6c0.7-1,1.7-1.5,2.3-1.2c0.6,0.4,2-0.5,3.3-1.8
				c1.3-1.3,2.7-2.2,3.2-1.9c0.5,0.3,1.7-0.1,2.7-1c1.6-1.4,1.8-1.4,3.4,0.5c1.6,1.9,1.6,2.2,0.1,5.5c-1.1,2.2-2.2,3.3-3,3
				c-0.9-0.3-1.4,0.1-1.4,1.2c0,2.5-9,11-12,11.4c-1.7,0.2-2.6,1-2.8,2.6c-0.4,2.5-5.3,5.5-7.6,4.6c-0.8-0.3-2.8,0.4-4.4,1.6
				c-1.6,1.2-4.8,2.4-7,2.7c-2.6,0.4-4.2,1.1-4.2,1.9C-268,625.9-283.4,625.4-288.8,623z M-267.2,618c1.3-1.6,1.8-3,1.2-3
				s-0.8-0.4-0.5-1c0.3-0.5,0.1-1-0.5-1c-0.7,0-0.9,0.7-0.6,1.6c0.8,2-1.6,4.4-4.3,4.4c-1.2,0-2.1,0.5-2.1,1
				C-274,622.3-269.3,620.9-267.2,618z M-276,613.2c0-0.8-0.9-1.2-2.2-1c-3,0.4-3.3,2.3-0.3,2.3C-277.1,614.5-276,613.9-276,613.2z
				 M-261.5,613c-0.3-0.5-1.3-1-2.1-1c-0.8,0-1.4,0.5-1.4,1c0,0.6,0.9,1,2.1,1C-261.8,614-261.2,613.6-261.5,613z M-272,610.2
				c0-0.5-1-1.7-2.2-2.8c-1.2-1-1.9-1.4-1.6-0.9c0.3,0.6,0.8,1.8,1.1,2.8C-274.1,611-272,611.7-272,610.2z M-254.9,605.7
				c1.9-1.2,4-3.5,4.7-4.9c1.3-2.8,0.7-7.8-1-7.8c-0.5,0-0.6,0.9-0.3,2c0.5,1.6,0.2,2-1.9,2c-1.6,0-2.6-0.6-2.6-1.5
				c0-0.8,0.6-1.5,1.4-1.5c0.7,0,1.9-0.6,2.6-1.4c0.6-0.8,1.9-1.2,2.8-0.9c1.5,0.5,1.4,0.3-0.2-1.5c-2.3-2.7-3.6-2.8-3.6-0.3
				c0,1.5-1.1,1.9-7.5,2.4c-4.1,0.4-8.7,0.5-10.2,0.2c-14.4-2.3-16.6-2.8-17-4.6c-1-3.8-11.9-1.5-12.9,2.7
				c-2.1,8.1,9.4,17.4,17.8,14.5c5-1.8,10.1-1.4,12.1,0.9C-268.2,608.9-259.5,608.8-254.9,605.7z M-301.2,603.8
				c-0.3-2.4-3.4-3.3-4.2-1.2c-0.5,1.2,1.6,2.8,4.2,3.3C-301,606-301,605-301.2,603.8z M-234,596c0-0.5-1-1-2.2-1
				c-1.9,0-2,0.2-0.8,1C-235.1,597.3-234,597.3-234,596z M-262,589c0-1.5-0.7-2-2.5-2c-1.4,0-2.5,0.3-2.5,0.8c0,0.6,0.9,1.2,4.8,3.1
				C-262.1,590.9-262,590.1-262,589z"/>
			<path id="p14P9j0q32" class="st14" d="M-306.2,547c-3.8-3.8-4.3-6-1.3-6c0.9,0,1.2,0.6,0.9,1.5c-0.4,1,0.7,2.8,3.1,5
				c2,1.9,3.1,3.5,2.5,3.5C-301.7,551-304,549.2-306.2,547z"/>
			<path id="ptutcB7Ol" class="st14" d="M-282.6,549.6c1.6-1.3,1.8-2,0.8-4c-0.6-1.4-2-3-3.2-3.6c-1.8-0.9-2-0.8-2,1.5
				c0,2.8-3.2,6.5-5.6,6.5c-1.3,0-1.5-0.7-1.1-3.5c0.4-2.3,0.2-3.5-0.6-3.5c-0.7,0-0.4-0.5,0.6-1.1c2.3-1.3,2.2-2.9-0.3-2.9
				c-1.7,0-2,0.7-2,4.5c0,3.3-0.4,4.5-1.5,4.5c-0.8,0-1.7-1.1-2.1-2.4c-0.7-2.8,0.3-6.6,1.7-6.6c0.5,0,0.9-0.7,0.9-1.5
				c0-3.2,9.1-0.8,13.7,3.5c2.9,2.7,5.2,7.5,4.2,8.4c-0.2,0.2-1.5,0.7-2.9,1C-284.4,551.1-284.4,551-282.6,549.6z"/>
			<path id="pYJkoGpX6" class="st14" d="M-246.5,549c-0.3-0.5,0.3-1,1.4-1c2.7,0,2.7-2,0.1-2.7c-1.1-0.3-2-1.1-2-1.8
				c0-1,1.2-1.2,4.3-0.8c5.3,0.7,6,1.3,4.8,4.6c-0.9,2.2-1.7,2.7-4.5,2.7C-244.3,550-246.2,549.6-246.5,549z"/>
			<path id="pVT0vrdNP" class="st14" d="M-216.6,546.5c0.3-0.9,0.6-4.7,0.6-8.3c0-4.7,0.3-6.3,1-5.2c0.5,0.8,1,3.4,1,5.8
				c0,2.3,0.5,4.2,1,4.2c0.6,0,1-0.7,1-1.5c0-2.1,2.7-7.2,5.1-9.6c1-1,1.9-2.4,1.9-3s0.7-1.7,1.5-2.6c1.2-1.2,1.3-1.8,0.4-2.9
				c-1.4-1.7-0.4-7.8,1.7-9.9c0.9-0.8,1.1-1.5,0.6-1.5s-1.5-2.6-2.2-5.7c-0.7-3.2-2.5-8.5-4.1-11.8s-2.9-6.6-2.9-7.3
				c0-1.6-9.7-11.5-12.7-13.1c-2.5-1.3-3.1-3.1-1-3.1c4.1,0,24.7,19.8,21.7,20.8c-0.6,0.2-0.6,1-0.1,2s1.9,4.6,3.1,8.2
				c2.4,7.2,2.4,9.5-0.9,26.5c-1.1,6.1-2.1,11.2-2.1,11.4c0,0.2-0.8,0.1-1.8-0.1c-2.7-0.7-5,1.3-5.4,4.7c-0.3,2.7-0.7,3-4.2,3.3
				C-216.6,548.1-217.2,547.9-216.6,546.5z"/>
			<path id="p1Ebg06T10" class="st14" d="M-327.7,532.5c-0.7-0.8-1.3-3-1.3-5s-0.7-4.3-1.5-5.1c-1.9-2-1.4-15,0.9-21.3
				c0.9-2.4,1.6-5.3,1.6-6.5c0-3.4,1.6-5.2,3.3-3.8c1.3,1.2,2.7,0.7,2.7-0.9c0-0.5-0.7-0.6-1.5-0.3c-0.8,0.4-1.5,0.1-1.5-0.5
				s0.5-1.1,1-1.1c0.6,0,1-0.7,1-1.5c0-2.2,4.5-6.2,8.5-7.5c1.9-0.6,3.5-1.6,3.5-2.1s1.6-0.9,3.5-0.9h3.4l-1.7,3
				c-1.6,2.7-1.6,3-0.1,4.2c0.9,0.7,1.9,2.5,2.3,4c0.5,2,1.3,2.8,2.9,2.8c5.4,0,15.8-3,23.3-6.8c7.9-4,16.3-6.2,23.4-6.2
				c6,0,5.5,1.3-1.3,3.2c-6.2,1.7-16.7,7.3-16.7,8.9c0,0.9,9.9,3.9,12.9,3.9c1.2,0,2.1,0.5,2.1,1.1c0,0.5,0.6,0.7,1.3,0.3
				c0.6-0.4,0.9-0.3,0.4,0.1c-1.1,1.3-7.2,1.6-11.6,0.6c-2.3-0.5-4.1-0.5-4.1,0s1.2,1.2,2.8,1.5c1.5,0.4,3.3,1.1,4,1.7
				c1,0.8,1.6,0.7,2.4-0.4s0.9-1,0.4,0.4c-0.3,1-0.6,2.1-0.6,2.3c0,0.2-0.7,0.4-1.6,0.4c-0.8,0-1.2,0.5-0.9,1
				c0.4,0.6,1.1,0.8,1.6,0.5c0.5-0.4,0.9-0.1,0.9,0.4c0,2-5.9,1.2-7-0.9c-0.6-1.1-1.8-2-2.8-2c-3.4-0.1-5.2-2.5-5.2-7
				c0-3.6-0.2-4.1-1.7-3.5c-5.1,2.1-14.1,4.6-18.9,5.1c-6.1,0.8-10.4-1.2-10.4-4.6c0-1.1-0.7-2-1.5-2c-1.1,0-1.5,1.1-1.5,4
				c0,2.2-0.4,4-1,4c-1.3,0-1.3,2.7-0.1,3.2c0.6,0.2,0.6,2.1,0,5.1c-0.9,3.9-1.4,4.7-3.2,4.7c-1.5,0-1.8-0.3-0.9-0.8
				c0.7-0.5,1-1.6,0.6-2.5c-0.3-1-0.1-1.7,0.5-1.7c1.3,0,1.5-4.6,0.3-5.4c-0.5-0.3-1.6,1-2.5,2.9c-1,2.1-2.4,3.5-3.4,3.4
				c-1,0-1.3-0.3-0.6-0.5c0.7-0.3,0.9-1.2,0.6-2s0.1-1.4,0.8-1.4c1.5,0,5.5-8.7,4.5-9.7c-0.3-0.4-0.6,0.1-0.6,0.9
				c0,0.9-0.7,1.8-1.5,2.2c-0.8,0.3-1.5,1.2-1.5,2c0,1.2-0.5,1.4-2.5,0.6c-2.9-1.1-3.4-0.4-5.9,8.2c-2,6.9-2,10.2-0.2,11.7
				c0.7,0.6,1.1,2.2,0.9,3.5c-0.3,1.3,0,2.7,0.6,3c0.6,0.4,1.1,2.2,1.2,3.9v3.2l1.2-2.5c0.6-1.4,1.6-2.8,2.1-3.1
				c0.4-0.4,0.6-1.1,0.2-1.7c-0.3-0.5,0.1-1.3,1-1.6c0.9-0.4,1.4-1.3,1-2.1c-0.3-0.8-0.1-1.5,0.4-1.5s0.7-0.6,0.4-1.4
				c-0.3-0.7,0.1-2,0.9-2.7c0.7-0.8,1.2-2,0.9-2.7c-0.2-0.7,0.5-1.2,1.8-1.2c2.5,0,2.3,0.9-2,11c-1.6,3.6-3,7.9-3.2,9.5
				c-0.2,2.5-0.8,3-3.3,3.2C-325.2,533.9-327.1,533.3-327.7,532.5z M-317.4,486c0.8,0,1.2-0.4,0.9-1c-0.3-0.5,0.4-1.1,1.7-1.1
				c1.4-0.1,1.7-0.3,0.7-0.6c-2.9-0.7-6.9,1.5-6.9,3.9c0.1,2.1,0.2,2.1,1.1,0.6C-319.4,486.8-318.2,486-317.4,486z"/>
			<path id="p1HQoWjAeu" class="st14" d="M-235,531c-0.8-0.6-5.1-1-9.5-0.9c-12,0.1-12.5,0-12.5-1.5c0-2,5.3-3.6,11.8-3.6
				c5.9,0,14.6,3.3,13.9,5.3C-231.8,531.9-233.3,532.1-235,531z"/>
			<path id="p4w3wQBne" class="st14" d="M-289.2,524.3c-2.2-0.3-2.8-1-2.8-2.9c0-2.7,1.8-3.1,6.9-1.3c2,0.7,3.1,1.8,3.1,3
				C-282,525-283.1,525.2-289.2,524.3z"/>
			<path id="pUDQCmAfZ" class="st14" d="M-217.1,516.5c-0.3-3.3-0.9-6.8-1.4-7.8c-0.7-1.7-0.6-1.8,1.3-0.6c2.4,1.5,5.7,8.2,4.8,9.8
				c-0.4,0.5-1.3,0.8-2.1,0.5c-0.8-0.4-1.5,0.3-1.7,1.8C-216.4,521.5-216.8,519.8-217.1,516.5z"/>
			<path id="pvmfJNu4m" class="st14" d="M-227,505.1c-2.7-1.5-12.9-3.5-20.2-4c-1,0-1.8-0.8-1.8-1.6c0-1.9,8-2.1,11.3-0.3
				c1.2,0.7,3.2,1.1,4.3,0.9c1.2-0.1,2.8,0.5,3.7,1.3c0.9,0.9,2.3,1.3,3.1,1c1-0.4,1.8,0,2.2,1c0.3,0.9,1,1.3,1.5,1s0.9,0,0.9,0.5
				C-222,506.2-224.9,506.3-227,505.1z"/>
			<path id="p18i6c81a1" class="st14" d="M-219,499c-0.6-1-2.6-2.7-4.5-3.6s-3.5-2.3-3.5-3c0-1.2,0.4-1.3,2.3-0.3
				c1.2,0.6,2.9,1.9,3.7,2.8c4.3,4.7,5.2,6.1,4.2,6.1C-217.4,501-218.4,500.1-219,499z"/>
			<path id="pPt7Yg24t" class="st14" d="M-245.4,493.3c-0.4-0.5-2.4-1.3-4.4-2l-3.7-1.1l4.9,0.3c5.3,0.4,6.5,1,5,2.5
				C-244.2,493.6-245,493.7-245.4,493.3z"/>
			<path id="pZLt8cH5d" class="st14" d="M-286.8,476.1c-1.8-1.1,17.8-12.1,21.5-12c2.6,0,2.5,0.2-1.5,2c-2.4,1-4.1,2.3-3.8,2.8
				c0.3,0.5,3.4,0.9,6.8,0.9c5.5,0,17.6,2.4,20.1,3.9c0.5,0.3,0.3,0.9-0.4,1.4c-0.7,0.4-1.8,0.5-2.3,0.2c-2.2-1.4-31.6-2.5-31.6-1.3
				c0,0.8-1.2,1.3-6,2.6C-284.8,476.8-286.1,476.6-286.8,476.1z"/>
			<path id="p1CGch8w20" class="st14" d="M-305.9,474.1c-2.2-1.4-0.5-5.3,3.7-8.3c8.7-6,21.9-9.5,35.7-9.4c7.6,0.1,9,0.4,9.3,1.8
				c0.3,1.6-0.8,1.7-11.7,1.5c-6.7-0.1-12.1,0.1-12.1,0.6c0,0.4-0.9,0.7-2,0.7s-4.9,1.1-8.5,2.5c-6.4,2.4-10,4.7-8.9,5.8
				c0.6,0.6-2.5,5.7-3.5,5.7C-304.2,475-305.1,474.6-305.9,474.1z"/>
			<path id="phFnOdcLS" class="st14" d="M-246,464.4c-1.9-1-2.1-1.4-0.7-1.4c0.9,0,1.7-0.5,1.7-1.1c0-0.7-1.1-0.8-3.2-0.4
				c-2.6,0.6-3,0.5-2.5-1c0.4-0.9,0.7-2,0.7-2.5c0-0.4,1.6-0.3,3.5,0.3c3.1,0.9,3.5,1.4,3.5,4.4c0,1.8-0.1,3.3-0.2,3.2
				C-243.4,465.8-244.6,465.2-246,464.4z"/>
		</g>
	</g>
	<g id="l163COGdtGEopLICpWiXFj4">
		<g>
			<path id="p10x1dC1bK" class="st15" d="M-279.5,623c-0.4-0.6,1-1,3.4-1c2.3,0,5.8-0.9,7.8-2c2.1-1.1,4.3-2,4.9-2s2.3-0.9,3.8-2.1
				l2.6-2v2.6c0,2-0.6,2.7-3,3.2c-1.6,0.3-3,1.1-3,1.8c0,0.7-0.7,1.6-1.6,1.9C-267.2,624.4-278.8,624.1-279.5,623z"/>
			<path id="p192zhMqHI" class="st15" d="M-276.5,619.9c-0.4-0.6-0.5-1.3-0.2-1.6c0.7-0.7,2.7,0.6,2.7,1.8S-275.7,621.3-276.5,619.9
				z"/>
			<path id="p16QXOevuE" class="st15" d="M-295.7,617.5c-0.7-0.8-1.3-2.3-1.3-3.4c0-1.7,0.3-1.8,3.5-0.8c2.1,0.6,3.4,1.6,3.1,2.3
				c-0.2,0.6,0.1,1.7,0.7,2.3c0.8,0.8,0.3,1.1-1.8,1.1C-293.2,618.9-295.1,618.3-295.7,617.5z"/>
			<path id="p4yugvzpr" class="st15" d="M-283.1,617.1c-2.2-1.8-2.3-2-0.6-2.7c1-0.3,2.3-0.2,3,0.5c1.9,1.9,4.7,1.3,4.7-1
				c0-1.7-0.5-2-2.4-1.7c-1.8,0.4-2.6,0-3-1.5c-0.4-1.6-0.1-1.8,2.2-1.4c1.5,0.3,3.7,0.8,5,1.2c2.7,0.9,2.8-0.4,0.2-3.3
				c-2.5-2.7-6.4-2.8-8.2-0.4c-1.2,1.7-4.9,4.2-6.2,4.2c-0.3,0-0.5-0.5-0.3-1.1c0.2-1.2-0.7-1.8-7.4-4.8c-3.6-1.5-5.3-3.1-7.3-6.8
				c-2.5-4.4-2.6-4.8-1-6c2.6-1.9,3.4-1.6,3.4,1.2c0,3.6,6.4,10.3,11,11.5c3.9,1,7.4,0.9,8.6-0.3c1.6-1.6,9.1-0.7,10.9,1.3
				c1,1.1,2.6,2,3.7,2c1,0,1.8,0.5,1.8,1c0,0.6-0.6,1-1.4,1c-0.7,0-2,0.7-2.7,1.6c-1.1,1.3-1,1.7,0.4,2.5c3,1.7,1.8,2.7-3.5,3.1
				c-2.9,0.2-6,0.8-6.9,1.2C-280.1,618.8-281.6,618.3-283.1,617.1z"/>
			<path id="pqEJkxd9o" class="st15" d="M-264.5,616c-0.4-0.6,0.6-1,2.2-1c2.2,0,2.5,0.2,1.3,1C-262.9,617.2-263.7,617.2-264.5,616z
				"/>
			<path id="pD6lnIIyn" class="st15" d="M-263.7,609.7c0-0.7,1.1-1.4,2.4-1.5c3.1-0.2,7.3-2.5,9.8-5.1c2.2-2.5,2.6-8.8,0.6-10
				c-0.9-0.6-1-1.1-0.3-1.5c2.3-1.4,4.1,5.8,2.6,9.8C-250.1,605.3-263.7,612.8-263.7,609.7z"/>
			<path id="p1HSO6V0cJ" class="st15" d="M-308.8,607c-0.6-1.1-1.2-3.2-1.2-4.7v-2.7l4,3.9c2.2,2.1,4,4.3,4,4.7
				C-302,609.9-307.6,608.9-308.8,607z"/>
			<path id="pNQzAAtQe" class="st15" d="M-315.4,598.8c-2-2.6-2.2-3.4-1.1-3.6c0.9-0.2,1.5-1.5,1.5-3.3c0-3.3,1.4-3.8,2.9-1
				c0.9,1.6,0.6,9.9-0.4,10.9C-312.6,602-313.9,600.6-315.4,598.8z"/>
			<path id="p2BLn8K8r" class="st15" d="M-234.3,598.8c1.8-2.2-0.1-4.1-3.5-3.6c-2.2,0.3-2.9,0.1-2.5-0.9c0.3-0.8,1.1-1.2,1.7-1
				c0.6,0.3,2.3-0.7,3.9-2.1c1.9-1.8,2.7-2.1,2.7-1.1c0,0.8-0.5,2-1.2,2.7c-0.9,0.9-0.7,1.2,1,1.2c1.2,0,2.3-0.6,2.3-1.2
				c0.3-2.9,0.5-3.4,2.4-6.5c1-1.8,2.5-3.3,3.2-3.3c1.8,0,1.6,4.5-0.2,6.4c-0.8,0.8-1.5,1.9-1.5,2.5s-0.6,1.1-1.4,1.1
				c-0.9,0-1.6,1.2-1.8,3.3c-0.3,2.7-0.7,3.2-3.2,3.5C-234.8,600.1-235.2,599.9-234.3,598.8z"/>
			<path id="pC2K3ZExw" class="st15" d="M-282.5,595.6c-12.5-3.2-16.4-4.7-15.8-6.2c0.7-1.8,1.1-1.8,5.7,0.6c2.1,1,7.2,2.7,11.2,3.6
				c4.1,0.9,7.4,2,7.4,2.5C-274,597.3-276.3,597.1-282.5,595.6z"/>
			<path id="pU7GWDf3Z" class="st15" d="M-272,596c-1-0.7,1.2-1,7.3-1.2c4.8-0.1,9.7-0.2,10.9-0.2c1.2-0.1,2.3,0.5,2.6,1.2
				C-250.7,597.3-269.6,597.5-272,596z"/>
			<path id="pUa8zdutE" class="st15" d="M-272,592.4c-1.4-0.2-4-0.7-5.7-1c-2.1-0.3-3.3-1.1-3.3-2.1c0-1.2,0.6-1.4,3.3-0.8
				c1.7,0.4,5.5,0.8,8.2,0.9c2.8,0,5.6,0.5,6.3,0.9c0.7,0.5,1.2,0.4,1.2-0.2c0-1.4,7.7-1.4,8.5,0c0.4,0.6,0.5,1.2,0.3,1.4
				C-253.8,592.2-269.3,592.9-272,592.4z"/>
			<path id="pzWYsJOEV" class="st15" d="M-249,590.2c-1.9-1.6-2-2-0.8-2.5c1.7-0.6,5.8,1.8,5.8,3.4
				C-244,592.6-246.6,592.1-249,590.2z"/>
			<path id="pJVApqyLj" class="st15" d="M-289,588.9c-7.8-2.3-8.4-2.3-10.3-0.4c-1.3,1.3-1.6,1.3-2.7,0c-0.7-0.8-0.9-1.5-0.4-1.5
				s0.3-0.4-0.4-0.8c-2.1-1.4-0.2-4.1,3.7-5.3c2.6-0.7,4.9-0.7,8.1,0.1c2.5,0.6,5.9,1.3,7.5,1.6c3.7,0.7,4.3,1.2,2.1,1.9
				c-5.3,1.7-5.2,1.6-2.8,2.8c1.2,0.5,2.2,1.6,2.2,2.4c0,0.7-0.1,1.3-0.2,1.2C-282.4,590.9-285.4,590-289,588.9z M-298.4,583.5
				c1.8-1.5,1.8-1.5-0.5-1.3c-1.4,0.2-2.6,0.9-2.9,1.6C-302.3,585.5-300.8,585.3-298.4,583.5z M-292,583c1.2-0.8,0.9-1-1.3-1
				c-1.6,0-2.6,0.4-2.2,1C-294.7,584.2-293.9,584.2-292,583z"/>
			<path id="pBTQKF0xf" class="st15" d="M-312.4,587.2c-1.6-1.9-1.6-2,0.4-2.5c2.3-0.6,3.9,1.8,2.3,3.4
				C-310.3,588.7-311.3,588.4-312.4,587.2z"/>
			<path id="p1B07rWIs9" class="st15" d="M-277,585.5c-1.8-1,0.2-1.1,10.6-0.7c17.2,0.6,20.1,1.9,4.3,1.9
				C-270.1,586.7-275.5,586.3-277,585.5z"/>
			<path id="p7d3Q1vMl" class="st15" d="M-322.3,584.3c-0.4-0.3-0.7-1.9-0.7-3.5c0-3.9,2.7-4.8,5.2-1.9c1.6,2.1,1.8,2.1,1.8,0.5
				c0.1-1.6,0.3-1.5,1.5,0.6c2,3.4,1.8,4.3-0.4,3c-2.7-1.4-4.1-1.3-4.1,0.5C-319,585-321.1,585.6-322.3,584.3z"/>
			<path id="pnrkWejDM" class="st15" d="M-212,541.2c0-1.1,0.9-2.7,2-3.7c2-1.8,2-1.7,2,1.8c0,3-0.4,3.7-2,3.7
				C-211.3,543-212,542.3-212,541.2z"/>
			<path id="ptmpyk2gk" class="st15" d="M-231.5,533c-2.2-1.6-4.8-2.9-5.7-3c-1.9,0-2.6-3-0.8-3c2.7,0,7.9,3.1,9.9,5.9
				C-225.3,536.7-226.3,536.8-231.5,533z"/>
			<path id="pMhAtkRcu" class="st15" d="M-216.4,531.9c-0.8-4.1-0.8-11.4,0-10.6c0.9,0.9,2.1,13.7,1.3,13.7
				C-215.4,535-216,533.6-216.4,531.9z"/>
			<path id="pmCdgUfD8" class="st15" d="M-257.3,529c0.3-1.1,0.9-2.1,1.4-2.1c0.5-0.1,1.3-0.2,1.8-0.3c0.5,0,1.3-0.4,1.7-0.8
				c0.4-0.5,1.9-0.8,3.3-0.7l2.6,0.1l-2.5,0.8c-2.4,0.8-2.4,1.1,0.2,1.4c2.9,0.3,1.5,2.4-1.9,3C-257,531.4-257.9,531.2-257.3,529z"
				/>
			<path id="psFo5eutd" class="st15" d="M-242.7,529.4c0.9-0.3,1.7-1.2,1.7-1.9c0-0.7-0.8-1.6-1.7-1.8c-1.3-0.3-1.2-0.5,0.5-0.6
				c1.9-0.1,2.3,0.3,2,2.1c-0.2,1.4-1.1,2.4-2.3,2.5C-244.1,529.8-244.1,529.8-242.7,529.4z"/>
			<path id="p1C2ZrOcMz" class="st15" d="M-329.3,527.3c-0.4-0.3-0.7-2.1-0.7-4c0-1.8-0.4-3.3-0.8-3.3s-0.9-1.6-1-3.5
				c-0.4-5.1,2.2-4.1,3.4,1.2c0.1,0.7,0.8,2.5,1.6,4c0.7,1.5,1.2,3.6,1,4.6C-326.1,528-328.1,528.6-329.3,527.3z"/>
			<path id="pn1FJz11W" class="st15" d="M-283.5,526c-5.9-2.8-13.2-3.4-18.3-1.7c-5.4,1.9-5.2,0.1,0.4-3c5.1-3,12.4-3.2,12.4-0.4
				c0,1.4,0.5,1.8,2,1.4c1.1-0.3,1.7-0.9,1.4-1.4c-0.8-1.4,0.6-1.1,5.3,1.2c4.4,2.1,5.5,4.2,2.7,5.3c-0.9,0.3-1.6,0.6-1.7,0.5
				C-279.4,527.9-281.3,527-283.5,526z"/>
			<path id="pwlJcrIfv" class="st15" d="M-319.1,522.8c-0.5-1.7-0.4-4.8,0.2-4.8c0.5,0,0.6-0.7,0.2-1.6c-0.4-1,0.2-1.7,1.6-2.1
				c1.7-0.4,1.9-0.8,0.9-2c-0.9-1.1-0.9-1.6,0.3-2.4c1.2-0.7,1.2-0.9,0-0.9c-0.9,0-0.6-0.7,0.9-2c1.3-1.1,2.4-2,2.5-2
				s-0.1,2-0.6,4.5C-314.2,515.4-318.4,524.7-319.1,522.8z"/>
			<path id="pmNbNQnaW" class="st15" d="M-217.4,511.2c-0.3-1-2.8-2.9-5.6-4.2c-3.6-1.8-4.7-2.9-4.1-3.8c0.6-1.1,1.1-1,2.5,0.3
				c0.9,0.9,1.6,1.3,1.6,0.8c0-0.4,0.4-0.3,0.8,0.2c0.4,0.6,1.9,1.8,3.4,2.8c3.5,2.2,5.5,5.7,3.4,5.7
				C-216.2,513-217.1,512.2-217.4,511.2z"/>
			<path id="phIzghvT8" class="st15" d="M-263.7,504.3c-1.3-0.2-2.3-0.9-2.3-1.4s1-0.7,2.3-0.5c1.2,0.3,2.8,0.5,3.5,0.5
				c0.6,0.1,1.2,0.6,1.2,1.1C-259,505-259.8,505.1-263.7,504.3z"/>
			<path id="pGHoxbliU" class="st15" d="M-328.6,498.9c0.3-1.7,0.6-3.8,0.6-4.5c0-0.8,0.9-1.4,1.9-1.4c1.4,0,1.9,0.6,1.8,2
				c-0.1,1.1-0.5,2-1,2c-0.4,0-0.5,0.5-0.2,1c0.3,0.6,0.1,1-0.5,1s-0.9,0.4-0.6,0.9s-0.1,1.2-1,1.5
				C-329,501.9-329.2,501.5-328.6,498.9z"/>
			<path id="pGxFDozC0" class="st15" d="M-319.8,501.3c0.9-0.2,1.9-1.2,2.1-2.1c0.3-1.2,0.5-1,0.6,0.6c0.1,1.7-0.4,2.2-2.1,2.1
				C-320.8,501.8-321,501.6-319.8,501.3z"/>
			<path id="pCbtTwBM6" class="st15" d="M-250.7,501.3c-6.9-0.4-7.8-1.2-3.5-3c3.3-1.5,9.7-0.1,10.6,2.2c0.3,0.8,0.2,1.4-0.2,1.3
				C-244.2,501.7-247.3,501.5-250.7,501.3z"/>
			<path id="p28o8nPbC" class="st15" d="M-265.7,499.8c0.2-0.7,1-1.2,1.7-1s1.7-0.3,2.1-1c0.7-1,0.9-1,0.9,0c0,0.6,0.7,1.2,1.5,1.2
				s1.5,0.5,1.5,1c0,0.6-1.8,1-4.1,1C-264.9,501-266,500.6-265.7,499.8z"/>
			<path id="pcXfEODPj" class="st15" d="M-315.6,494.5c1.8-2.8,2.1-4.5,0.6-4.5c-0.5,0-1,0.9-1,1.9c0,3.8-4.2,3.4-5.4-0.6
				c-0.4-1.4-1.2-2-2.2-1.6c-0.9,0.3-1.4-0.1-1.4-1.3c0-2.4,1.1-3.8,3.1-4.2c1.2-0.2,1.5,0.4,1.2,2.2c-0.5,2.3-0.3,2.4,3.6,1.9
				l4.1-0.6v4.7c0,4-0.3,4.6-2.1,4.6C-317.1,497-317.2,496.9-315.6,494.5z"/>
		</g>
	</g>
	<g id="l5naEiAoNw3PypIFnushFcQ">
		<g>
			<path id="p160WgvFMS" class="st16" d="M-272,738.6c0-0.8,0.4-1.7,0.8-2c1.5-0.9,13.5-25.8,16.2-33.6c1.8-5.1,3.2-7.6,4.4-7.8
				c1.5-0.3,1.7,0.1,1.1,2c-1.3,4.2-6.8,18.3-7.7,19.4c-0.4,0.6-1.4,2.9-2.2,5.2C-263.1,732.1-272,744-272,738.6z"/>
			<path id="p1A21vAihx" class="st16" d="M-221,707.1c-0.5-1.1-1-2.7-1-3.5c0-0.9-0.6-1.6-1.4-1.6c-1.3,0-3-2.2-7.1-9.1
				c-7.1-12-10.9-17-11.7-15.5c-0.5,0.9-1.5,1.6-2.3,1.6c-1.5,0-0.9-2.8,2-9.5c0.7-1.6,1.6-4,2-5.2c0.3-1.3,1.3-2.3,2.1-2.3
				s1.4,0.1,1.4,0.3c0,0.1-0.6,2.2-1.4,4.7c-1.2,4.2-1.2,4.6,1.6,9.5c1.7,2.7,4,6.4,5.2,8c1.2,1.7,3.3,5,4.5,7.5
				c1.3,2.5,2.7,4.7,3.1,5c0.8,0.5,8,10.9,8,11.6C-216,709.9-220.1,708.7-221,707.1z"/>
			<path id="p1FvuYbxiJ" class="st16" d="M-251,691.3c0.1-2.3,3.6-7,4.6-6.1c0.4,0.4,0.3,2.2-0.2,4
				C-247.7,692.8-251,694.4-251,691.3z"/>
			<path id="pPfXG0leU" class="st16" d="M-196.8,684.3c0.2-0.5,1-2,1.7-3.5c1.3-2.5,1.2-3-1-5.7c-4.1-5.1-28.9-31-28.9-30.3
				c0,0.4-0.5-0.1-1.1-1.1c-0.6-0.9-1.4-1.5-1.9-1.2c-1,0.6-6-1.5-6-2.6c0-0.5-1.8-1.4-4-2c-2.2-0.7-4-1.6-4-2
				c0-0.5-3.5-2.5-7.7-4.5l-7.7-3.7l-1.4,2.2c-2.1,3.1-3,2.6-3-1.6c-0.1-5.6,0.7-7.3,3.1-7.3c2.1,0.1,2.1,0.1-0.3,1.5
				c-1.9,1.1-2.1,1.4-0.7,1.5c1.8,0,17.3,7.5,23.6,11.4c2,1.2,5.7,3,8.2,3.9c5,1.9,5.5,2.3,14.8,12.3c3.5,3.8,9.6,10.3,13.6,14.4
				c7.8,8.1,9.7,12.3,7.4,16.6C-193.2,684.7-197.7,686.3-196.8,684.3z"/>
			<path id="pgUK2S7e3" class="st16" d="M-289.2,637.3c-1-0.2-1.8-1.1-1.8-2c0-1,0.6-1.3,1.6-0.9c0.9,0.3,2.4,0.6,3.5,0.6
				c1,0,1.9,0.7,1.9,1.5C-284,638-285.7,638.2-289.2,637.3z"/>
			<path id="pfx4KOXhZ" class="st16" d="M-275,637.1c0-0.5,1.2-1.2,2.8-1.5c1.5-0.4,3.5-0.9,4.5-1.2c1.1-0.3,1.7,0,1.7,0.9
				c0,1.5-2.9,2.7-6.7,2.7C-274,638-275,637.6-275,637.1z"/>
			<path id="pwJGIkkte" class="st16" d="M-298.3,634.5c-2.1-0.8-5.7-2.9-8-4.7c-3.2-2.6-3.7-3.4-2.3-3.6c0.9-0.2,2.7,0.4,3.8,1.4
				c1.1,1,4.3,2.8,7.1,4C-289.6,635-290.2,637.5-298.3,634.5z"/>
			<path id="pGBAi8ETO" class="st16" d="M-313.9,616.8c-0.1-1.6-1.4-1.8-13.1-1.8c-10.7,0-13-0.3-13-1.4c0-1.2,2.4-1.5,12.6-1.8
				c6.9-0.2,13,0,13.6,0.3c0.5,0.3,0.8,1.9,0.5,3.5C-313.5,617.2-313.8,617.7-313.9,616.8z"/>
			<path id="pueceo6xb" class="st16" d="M-297,492.6c0-1.3,2.8-2.6,5.8-2.6c0.6,0,1.2,0.9,1.2,2c0,1.6-0.7,2-3.5,2
				C-295.8,494-297,493.5-297,492.6z"/>
		</g>
	</g>
	<g id="l65BwjukXQKeCpewvKulorE">
		<g>
			<path id="pTMI7uceN" class="st17" d="M-271.8,739.3c2.5-5.1,3.4-6.3,4.7-6.3c1.4,0,1.4-0.2,0.1-1c-1.3-0.8-1.2-1,0.3-1
				c0.9,0,1.7,0.5,1.7,1.1c0,2.1-4.2,7.9-5.7,7.9C-271.5,740-272,739.7-271.8,739.3z"/>
			<path id="pIXQT8bMS" class="st17" d="M-264.3,728.6c-0.4-0.9-0.2-1.6,0.3-1.6s0.7-0.6,0.4-1.3c-0.8-2.3,0.9-5.7,2.5-4.8
				c1.5,1,1,4.5-1.2,7.5C-263.5,730.1-263.7,730.1-264.3,728.6z"/>
			<path id="piZfAxfjk" class="st17" d="M-257,708.5c0-0.8,0.8-1.5,1.8-1.5c1.3,0,1.4-0.2,0.4-0.9c-1-0.6-1.1-1.3-0.1-3.4
				c0.7-1.5,1.8-2.7,2.6-2.7c1.5,0,1.8-1.7,0.4-2.2c-1.3-0.4,1-7.8,2.4-7.8c0.5,0,1-1.4,1.1-3c0.2-4,3.4-11,5.1-11
				c0.7,0,1.3,0.2,1.3,0.5c0,0.4-8.6,24.1-11.2,30.8C-254.3,710.2-257,711-257,708.5z"/>
			<path id="pDzwEtoAt" class="st17" d="M-213,655.6c0-0.5-1-2-2.2-3.3c-3.3-3.6-0.6-2.7,3.8,1.2c3.9,3.4,3.9,3.4,1.2,3.2
				C-211.8,656.6-213,656.1-213,655.6z"/>
			<path id="p1XEt5XUc" class="st17" d="M-220.9,646.6c-1.5-1.6-1.9-2.6-1.1-3.1c0.6-0.4,1.2-0.5,1.3-0.4c0.1,0.2,1.3,1.6,2.6,3.2
				C-215,649.8-217.6,650.1-220.9,646.6z"/>
			<path id="p1FBLQKKdC" class="st17" d="M-227.2,640.9c-1-0.5-1.8-0.7-1.8-0.4c0,0.4-1.6-0.3-3.5-1.5c-1.9-1.2-3.5-1.8-3.5-1.3
				c0,0.4-0.4,0.3-0.8-0.2c-0.4-0.6-3.3-2.4-6.5-4c-3.2-1.7-7.2-3.8-9-4.7s-3.7-1.5-4.4-1.3c-0.6,0.2-1.4-0.1-1.7-0.8
				c-0.2-0.7-0.5,0-0.5,1.4c-0.1,1.8-1.4,3.8-3.7,5.9c-2.9,2.5-4.2,3-6.5,2.5c-1.8-0.4-2.9-0.3-2.9,0.4c0,0.6-1.1,1.1-2.5,1.1
				s-2.5-0.4-2.5-1c0-0.5,0.8-1,1.8-1c3.8,0,9.1-2.2,11.6-4.7s2.6-2.8,1.1-3.9c-1-0.8-5.1-1.2-10.9-1.1c-8.3,0.1-9.9-0.2-14.4-2.5
				c-2.9-1.5-6.9-4-8.9-5.6c-3.3-2.5-4.4-2.8-9-2.4c-4.4,0.3-5.3,0.7-5.3,2.3c0,2.3,2.6,6.7,5.5,9.1c2,1.7,2,1.7-0.2,1.8
				c-2.8,0-6.9-4.9-7.7-9.6c-0.4-2-1.4-4.3-2.1-5c-1.6-1.6-9.5-1.9-9.5-0.4c0,0.6-0.7,1-1.5,1s-1.5-0.4-1.5-1c0-0.5-0.7-1-1.5-1
				s-1.5,0.6-1.5,1.3c0,0.8-0.4,0.7-1-0.3s-1-1.1-1-0.2c0,1.7-3.8,1.5-5.6-0.3c-1.4-1.3-0.2-1.5,10.3-1.6c6.5,0,13-0.2,14.5-0.4
				c1.5-0.2,3,0.1,3.3,0.6c0.7,1.1,6.5,1.2,6.5,0.1c0-0.4-1.4-2-3.1-3.6c-4-3.8-10-12-12.8-17.3c-2.1-4.2-2.9-7.9-3-14
				c-0.1-2.6-0.6-3.2-2.9-3.7c-1.8-0.4-3.8-2.3-5.9-5.4c-4.6-6.9-5.1-8.3-6.4-16c-1.5-9-0.6-14.8,3.2-20.5c2.7-4.2,3-5.3,3-13.1
				c0-5.4,0.7-10.9,1.9-15.3c1.1-3.7,2-7.9,2-9.3c0-2.3,4.9-11.7,5-9.5c0,0.5,0.7,0,1.5-1.2c0.8-1.1,3.2-2.8,5.4-3.6
				c2.2-0.9,4.2-2.5,4.6-3.6c1-3.3,9.5-10.9,15.1-13.6c9.2-4.3,16.9-5.9,29.9-5.9c6.6,0,13.4,0.3,15,0.6c1.7,0.4,5.5,1.1,8.5,1.7
				c6.9,1.4,15.3,4.5,15.8,5.9c0.2,0.6-0.7,0.8-2,0.6c-2.6-0.5-3.1-0.9,6.6,5.5c12.5,8.4,22.6,19.6,22.6,25.2c0,1.4,0.6,4.4,1.4,6.6
				c1.9,5.4,1.1,23.6-1.2,27.9c-0.6,1.1-1.5,4.8-2.2,8.2c-0.9,5.3-0.9,6.6,0.5,8.4c3.8,5.5,0.3,22-6.3,29.9
				c-6.5,7.9-9.2,9.9-13.2,9.9c-1.1,0-2.3,0.8-2.6,1.8c-1.6,4.7-5.8,13-7.7,15.1c-2.9,3.1-12.4,10.4-16.2,12.3
				c-7.3,3.8-13.9,7.8-12.8,7.8c1.3,0,19.7,8.6,25.3,11.9c1.9,1.1,5.5,2.9,8,4s3.8,2,3,2S-226.3,641.5-227.2,640.9z M-265.4,619
				c3.4-1.6,6.5-3.4,6.9-4c0.3-0.5,1.6-1,2.8-1c2.5,0,8.7-5.4,8.7-7.6c0-1.7,2.6-1.9,3.3-0.1c0.8,1.8,14.1-12.3,14.2-15.1
				c0.2-2,1.7-5.2,2.4-4.8c0.4,0.3,0.8,0,0.8-0.7c0.1-0.7,1.9-6,4.2-11.9c2.2-5.9,4-12.2,3.9-14c-0.1-4.4,2.2-17.7,3.2-18.3
				c0.4-0.3,0.6,0.5,0.3,1.6c-0.4,1.5-0.2,2,0.8,1.7c0.7-0.2,1.7-1.9,2.1-3.6c0.5-1.8,1.9-3.9,3.2-4.8c3-1.9,5.6-8.2,6.3-14.9
				c0.3-2.7,0.9-5.7,1.4-6.6c1.2-2.4-2.2-14.6-6-21.3c-1.7-3.1-3.1-6.3-3.1-7.2c0-1.5-2.5-4.2-10.1-11c-0.9-0.8-2.6-1.6-3.8-1.7
				c-1.1-0.1-2.1-0.5-2.1-1c0-0.4-0.4-0.6-0.9-0.3c-0.5,0.3-1.1,0-1.4-0.7c-0.3-0.8-3.1-2.1-6.4-3.1c-7.7-2.2-10.8-3.9-10.8-5.6
				c0-2-0.6-2.3-2.8-1.4c-1,0.4-2.3,0.2-3-0.5c-0.6-0.6-2.8-1.1-4.9-1.1c-2.1,0-3.8-0.4-3.8-0.8c0-0.5-2.2-0.6-5-0.2
				c-2.7,0.4-5,0.3-5-0.2c0-0.4-0.7-0.8-1.5-0.8s-1.5,0.5-1.5,1.1c0,0.8-1.4,1-4.5,0.6c-2.9-0.4-4.5-0.3-4.5,0.4
				c0,0.6-0.9,0.8-2.1,0.4c-2-0.7-15.9,5.2-15.9,6.8c0,0.4-0.6,0.7-1.4,0.7s-1.6,0.7-2,1.5c-0.3,0.8-0.1,1.5,0.4,1.5
				c1.9,0,1,2.8-2,6c-1.6,1.8-2.7,3.6-2.4,4.1c0.3,0.5,0,0.9-0.5,0.9c-1.9,0-1.2,2.2,0.9,2.7c1.1,0.3,2,1.4,2,2.4
				c0,2.7,3.8,4.9,7.4,4.3c5.8-1.1,13.1-3.7,22.1-8c6-2.9,11-4.6,15-5c6.9-0.8,6.9-0.3,0,2.3c-6.1,2.3-13.5,6.9-13.5,8.4
				c0,1.3,6.2,3.9,9.4,3.9c1.4,0,2.8,0.5,3.1,1c0.6,1-1.5,0.9-9.2-0.6c-3.8-0.7-4.4,0.7-1,2.4c4.8,2.3,9.9,3.3,16.4,3.1
				c9.4-0.2,11.3-0.1,11.3,1.1c0,0.6-4.6,1-11.7,1.1c-7.5,0-11.1,0.4-9.8,0.9c1.1,0.5,3.9,0.9,6.3,0.9c2.4,0.1,4.2,0.6,4.2,1.2
				c0,3.3-24.1-3.2-30.3-8.1c-2.1-1.7-3-1.8-5.7-0.9c-1.9,0.7-6.2,0.9-10.7,0.6l-7.5-0.6l-1.4,3.4c-1.6,4-3.4,5.4-3.4,2.7
				c0-1.1-0.7-2.5-1.5-3.2c-1.3-1.1-1.3-1.6,0.2-4.1c2-3.3,1.6-4.1-1.6-3.2c-1.7,0.4-1.9,0.8-0.9,1.4c0.8,0.5,0.9,1.2,0.3,1.8
				c-1.3,1.3-3.1,0.2-3.9-2.6c-0.5-1.7-0.3-2.3,0.8-2.3c0.8,0,1.9-0.6,2.3-1.3c0.4-0.7,1.8-2,3-2.8c1.6-1.1,1.9-1.9,1.2-2.9
				c-0.8-1.3-1.1-1.2-2,0.2c-0.5,1-1.6,1.8-2.4,1.8s-2.1,1.4-3,3c-0.9,1.7-2,3-2.6,3s-0.7,0.5-0.4,1c0.4,0.6,1.1,0.8,1.6,0.5
				c0.5-0.4,0.9-0.1,0.9,0.4c0,0.6-0.4,1.1-0.9,1.1c-0.9,0-3.7,6-3.3,7.2c0.1,0.5-0.3,0.8-0.9,0.8s-0.9,0.9-0.6,2s0.1,2-0.5,2
				s-0.7,0.7-0.4,1.5c0.3,0.9,0,2.4-0.6,3.5c-1,1.5-0.8,3.2,0.9,8.7c1.2,3.7,2.4,8.1,2.8,9.8c0.6,2.7,0.8,2.8,1.9,1.2
				c0.7-0.9,1.9-1.7,2.6-1.7c1,0,1.2,2,0.7,8.8c-0.4,4.8-0.9,9.7-1.3,11c-0.8,2.9-3.4,2.9-3.4,0c0-3.2-1.5-5.2-3-4.3
				c-0.9,0.6-1.1,0.4-0.5-0.5c0.4-0.7,0.9-3.4,1.1-6.1c0.3-4.2,0.1-4.9-1.5-4.9c-1,0-2.6,0.9-3.7,2.1c-1.6,1.8-1.9,3.7-1.9,12.3
				c0.1,8.9,0.4,10.7,2.8,15.2c4,7.8,7.7,10.8,7.7,6.4c0-1.3,0.7-2,1.9-2c1.5,0,1.9,1,2.4,5.6c0.3,3,1.1,6.2,1.8,7
				c0.9,1.1,0.9,1.4-0.1,1.4c-0.9,0-1.1,1.2-0.7,4c0.6,4.7,2.6,7.8,3.7,5.9c1.3-1.9,3,0,3,3.3c0,4.1,9,15.8,12.2,15.8
				c0.6,0,2.1,1,3.4,2.3c1.2,1.2,3.5,3.4,5.1,4.9C-284.6,622.7-275.3,623.7-265.4,619z M-218,581.8c0-0.5,0.4-0.7,0.9-0.4
				c0.5,0.3,2.8-1.7,5.1-4.4c4.6-5.4,8.9-16.2,9-22c0-4.2-2.4-8-5.1-8c-1.8,0-2,0.6-2.4,5.1c0,0.9-0.8,2.7-1.6,4
				c-0.9,1.3-2.1,4.6-2.8,7.2c-0.6,2.7-2,7.2-3.1,10c-1.5,3.9-1.7,5.3-0.7,5.9c0.8,0.5,0.8,0.8,0.1,0.8s-1.4,0.6-1.7,1.3
				c-0.3,0.8,0.1,1.4,0.9,1.4S-218,582.3-218,581.8z"/>
			<path id="pciXBUAJe" class="st17" d="M-262.7,609.3c0.9-0.9,2-1.3,2.4-0.9c0.4,0.4,0.1,1.1-0.7,1.6
				C-263.5,611.6-264.5,611.1-262.7,609.3z"/>
			<path id="pTnsBtyc2" class="st17" d="M-270.5,607.1c-0.6-0.5-2.6-1.4-4.5-1.9l-3.5-1l3.1-0.1c1.9-0.1,3.8,0.7,4.9,1.9
				C-268.7,608-268.7,608.8-270.5,607.1z"/>
			<path id="p17jfc5qBk" class="st17" d="M-296.1,604.3c-1.2-1.5-1.2-1.6,0.4-1c1,0.4,2.3,0.7,2.8,0.7c0.6,0,0.7,0.5,0.4,1
				C-293.4,606.5-294.6,606.2-296.1,604.3z"/>
			<path id="pEO7RqWju" class="st17" d="M-250.6,557.7c-1.7-0.7-4.7-2.4-6.5-3.9l-3.4-2.7l4.2-4.1c2.7-2.5,5.2-4.1,7-4.1
				c9.1-0.5,16.8,1.6,18,4.8c0.4,1,1.4,2.3,2.2,3c1.4,1,1.4,1.4-0.4,3.3C-233.7,558.6-243.5,560.4-250.6,557.7z M-236.1,556.6
				c5.8-3.1,6.2-6.5,1-9.2c-2.9-1.4-2.9-1.4-2.9,1.4c0,1.5-0.7,3.8-1.6,5c-3.4,4.9-12.1,1.1-11.2-4.9c0.5-3.4-0.9-3.8-4.3-1
				c-3.1,2.5-1.9,4.6,4.1,7.8C-246.1,558.3-240.2,558.7-236.1,556.6z M-242.2,546.3c0.2-0.8-0.6-1.3-2.2-1.3c-1.7,0-2.6,0.5-2.6,1.6
				C-247,548.5-242.9,548.2-242.2,546.3z"/>
			<path id="pxEzkodGO" class="st17" d="M-300.5,551.1c-5.5-2.4-9.8-7.6-8.5-10c3.3-6.3,18.4-6.7,25.1-0.7c6.2,5.5,6.3,8.7,0.2,10.9
				C-289.8,553.5-295.5,553.4-300.5,551.1z M-285.9,550.4c4.5-1.3,5.6-2,5.2-3.3c-0.8-2.1-4.4-6.1-5.5-6.1c-0.5,0-1.5-0.6-2.3-1.3
				c-1.7-1.7-7.5-1-7.5,0.9c0,1.6,2.6,1.9,3.5,0.4c1.1-1.7,3.5-1.2,2.8,0.6c-0.4,1,0.1,2,1.1,2.6c1.3,0.7,1.4,1.3,0.6,2.9
				c-0.6,1.1-1.5,1.7-2.1,1.4c-0.5-0.4-0.9-0.1-0.9,0.4c0,1.8-4.9,1.2-6.8-0.7c-1.4-1.4-1.8-3-1.5-6l0.3-4.2l-3.2,1.3
				c-4.6,1.9-5.5,3.9-3.2,7c1.8,2.5,3.1,3.2,8.4,4.7C-293.1,552.2-292,552.1-285.9,550.4z"/>
			<path id="pSP5fnmka" class="st17" d="M-279.2,527.9c-3.3-1.2-2.7-3.9,0.8-3.9c1.9,0,2.4,0.5,2.4,2.5c0,1.4-0.1,2.5-0.2,2.4
				C-276.4,528.9-277.7,528.4-279.2,527.9z"/>
			<path id="pOV8jzfU9" class="st17" d="M-292.5,523c-0.9-1.4,0.3-3,2.3-3c1.4,0,1.4,0.2,0.3,0.9c-0.7,0.5-1,1.4-0.7,2
				c0.4,0.6,0.3,1.1-0.3,1.1C-291.4,524-292.2,523.6-292.5,523z"/>
			<path id="pllHMWlPX" class="st17" d="M-217,516c0-5-0.6-6.1-3.5-7.8c-2-1.1-2-1.1,0-1.2c2.1,0,4.4,2.2,6.4,5.9
				c1.4,2.5,1.4,4.4,0.1,3.6c-0.6-0.3-1.4,0.4-1.9,1.7C-216.7,520.1-216.9,519.8-217,516z"/>
			<path id="pRsY8g4dF" class="st17" d="M-315,508.4c0-0.8,0.8-2.3,1.7-3.2c1.6-1.6,1.6-1.6,1,0.1c-0.4,1-0.7,2.5-0.7,3.3
				s-0.4,1.4-1,1.4C-314.5,510-315,509.3-315,508.4z"/>
			<path id="pPv7A8Ll2" class="st17" d="M-226.2,505.3c-0.9-0.2-1.5-1-1.2-1.8c0.7-1.6,3-0.9,3.8,1.1
				C-223,506-223.3,506.1-226.2,505.3z"/>
			<path id="p1FQwkwRuf" class="st17" d="M-236.2,502.7c-5.1-1.1-6.5-2.7-2.4-2.7c1.3,0,2.7,0.6,2.9,1.3c0.4,0.8,0.6,0.8,0.6,0
				c0.1-1.6,4.1-0.4,4.1,1.3c0,0.8-0.1,1.3-0.2,1.3C-231.4,503.8-233.6,503.3-236.2,502.7z"/>
			<path id="ppQWfKYFp" class="st17" d="M-280.7,474.2c-0.9-0.5,0.6-2,4.4-4.5c3-2,6.1-3.7,6.7-3.7s0.3,0.5-0.6,1.1
				c-1,0.5-1.8,1.7-1.8,2.5c0,1.2,0.9,1.5,3.8,1.3c5.6-0.3,7.2,0,7.2,1.2c0,0.8-1.9,1-6,0.6c-3.7-0.3-6-0.1-6,0.5s-0.8,0.7-1.7,0.3
				c-1-0.4-2.3-0.9-3-1.2c-0.6-0.2-1.3,0.2-1.5,1.1C-279.4,474.3-280,474.6-280.7,474.2z"/>
			<path id="pwaSxdXxZ" class="st17" d="M-258,473.1c0-1.5,1.5-2.1,3.8-1.4c3.2,0.8,2.7,2.3-0.8,2.3C-256.6,474-258,473.6-258,473.1
				z"/>
			<path id="pQhOzuvuj" class="st17" d="M-287,637c0-0.5-0.7-0.7-1.5-0.4c-0.9,0.4-1.5,0-1.5-0.9c0-1.2,0.7-1.3,3.8-0.6
				c2,0.5,4,0.9,4.5,0.9c0.4,0,0.7,0.5,0.7,1c0,0.6-1.3,1-3,1C-285.6,638-287,637.6-287,637z"/>
			<path id="p18Un318Ni" class="st17" d="M-293.2,636.3c-1-0.2-1.8-0.9-1.8-1.4c0-0.6-0.4-0.8-1-0.4c-1.2,0.8-8-2.1-8-3.4
				c0-1.1,2.7-1,4.5,0c0.6,0.4,2.7,1.2,4.8,1.8c2,0.7,3.7,1.9,3.7,2.7c0,0.8-0.1,1.3-0.2,1.3C-291.4,636.8-292.3,636.6-293.2,636.3z
				"/>
		</g>
	</g>
	<g id="l3ObWjdnUJW50endfN5idgS">
		<g>
			<path id="p08Fr78uN" class="st18" d="M-203.6,708c0-1,0.3-1.7,0.7-1.4c0.4,0.2,0.9-0.3,1.2-1c0.3-0.8,1.5-2,2.7-2.6
				c1.9-1,2-1,1.2,0.7c-0.6,1-2.1,2.8-3.4,4C-203.4,709.8-203.6,709.8-203.6,708z"/>
			<path id="pqkRlPd9w" class="st18" d="M-284,637c0-0.5,2.3-1,5-1c2.8,0,5,0.5,5,1c0,0.6-2.2,1-5,1C-281.7,638-284,637.6-284,637z"
				/>
			<path id="p3Iu3vZJ6" class="st18" d="M-292.7,636.3c-0.7-0.2-1.3-1.1-1.3-1.8c0-1,0.9-1.1,4.1-0.3c2.8,0.8,3.7,1.3,2.7,1.9
				C-288.6,637-290.8,637.1-292.7,636.3z"/>
			<path id="p17ezdToMr" class="st18" d="M-299.2,634.3c-2.9-0.7-2.1-2.5,1-2.1c1.5,0.2,2.6,0.7,2.5,1.3
				C-295.9,634.7-296.9,634.9-299.2,634.3z"/>
			<path id="p15wEhAiAT" class="st18" d="M-278.5,626.6c-0.5-0.3-2.8-0.7-4.9-1.1c-2.8-0.5-3.6-0.9-2.6-1.5c0.9-0.5,1.7-0.5,2.1,0.1
				c0.4,0.7,1.9,0.7,4.5,0.1c2.1-0.5,5.4-1,7.2-1.1c1.8-0.1,3.6-0.2,4-0.2c2-0.3,3.2,0.3,3.2,1.6c0,0.8-0.8,1.5-1.9,1.5
				c-1,0-3.8,0.2-6.2,0.5C-275.5,626.7-277.9,626.8-278.5,626.6z"/>
			<path id="pNP68cYQL" class="st18" d="M-290.9,622.1c-1.6-1.2-2-2-1.2-2.5c0.6-0.4,1.4-0.1,1.7,0.8c0.3,0.8,1.2,1.2,2,0.9
				c0.8-0.3,1.4,0,1.4,0.5C-287,623.8-288.5,623.9-290.9,622.1z"/>
			<path id="p16FBdg7ow" class="st18" d="M-311,614.5c0-1.1,1.2-1.5,4.9-1.5c5,0,7.4,1.3,4.5,2.4c-0.9,0.3-3.3,0.6-5.5,0.6
				C-309.9,616-311,615.6-311,614.5z"/>
			<path id="p1632TNhbO" class="st18" d="M-279.7,604.3c0.9-0.2,2.5-0.2,3.5,0c0.9,0.3,0.1,0.5-1.8,0.5S-280.7,604.6-279.7,604.3z"
				/>
			<path id="p19qoi9ZvD" class="st18" d="M-285,594.9c-4.1-1.1-7.9-2.5-8.4-3c-0.6-0.5-1.8-0.9-2.8-0.9s-1.8-0.7-1.8-1.5
				c0-1.9,0.5-1.9,3.4,0c5.1,3.3,15.8,5.5,27.1,5.6c6.1,0,11.9-0.1,13-0.3c1.1-0.2,2.1,0.2,2.3,0.7c0.1,0.6-4.6,1.1-12.5,1.2
				C-274.7,596.8-279.1,596.4-285,594.9z"/>
			<path id="pKsZBYG4d" class="st18" d="M-261.2,592.4c0.6-0.3,1.2-1.2,1.2-2c0-1.6,2.6-1.9,3.5-0.3c0.9,1.3,0.6,1.5-3,2.2
				C-261.1,592.7-261.9,592.7-261.2,592.4z"/>
			<path id="p19bylqLir" class="st18" d="M-277,591c2-1.3,4-1.3,4,0c0,0.6-1.2,1-2.7,1C-277.9,592-278.2,591.8-277,591z"/>
			<path id="piLq97OQ8" class="st18" d="M-222.5,575.8c1.5-5.3,2.8-7.8,4.2-7.8c1.1,0,1.3,0.8,0.8,3.3c-1,4.5-2.3,6.7-4.1,6.7
				C-222.7,578-223,577.4-222.5,575.8z"/>
			<path id="pRFk7paMC" class="st18" d="M-205.9,572.1c-0.7-0.5-1.2-1.4-1-2c0.3-0.6,0.9-0.7,1.8-0.2c0.7,0.5,1.2,1.4,1,2
				C-204.4,572.5-205,572.6-205.9,572.1z"/>
			<path id="p1HmQ1y3yL" class="st18" d="M-323.6,568c-0.4-2.2-0.9-4-1.3-4c-0.3,0-0.6-4.6-0.6-10.2c0-9.1-0.2-10.3-1.7-10.2
				c-1.4,0.1-1.5-0.2-0.8-1.6c0.5-0.9,0.7-2.8,0.4-4.1c-0.4-2.1-0.3-2.2,0.5-0.4c0.5,1.1,1.2,2.8,1.5,3.7c0.3,1,1.2,1.5,2.3,1.2
				c1.6-0.5,1.8,0.3,1.8,7.3c0,4.3,0.4,11.1,0.8,15.1c0.7,6.2,0.6,7.2-0.7,7.2C-322.5,572-323.2,570.7-323.6,568z"/>
			<path id="p1D1LXshBx" class="st18" d="M-333.7,565.4c0.4-0.4,0-1.6-1-2.6c-1.5-1.7-1.5-1.8,0.5-1.8c1.2,0,2.2,0.2,2.2,0.4
				c0,0.2,0.3,1.1,0.6,1.9c0.3,0.8-0.2,1.7-1.3,2.1C-333.6,565.8-334.1,565.8-333.7,565.4z"/>
			<path id="pLyfCgE9M" class="st18" d="M-218.6,564.4c0.3-0.9,0.6-2.9,0.6-4.5c0-2.2,0.5-2.9,2-2.9c1.7,0,2,0.5,1.6,2.8
				c-0.2,1.5-0.5,3.5-0.5,4.5c-0.1,1-0.9,1.7-2.2,1.7C-218.6,566-219,565.6-218.6,564.4z"/>
			<path id="pbZNUlO9L" class="st18" d="M-263.7,558.5c-0.1-3.3,0.3-7.3,0.7-9l0.8-3v3.5c0,1.9-0.3,6-0.8,9l-0.7,5.5V558.5z"/>
			<path id="p65SOmrE1" class="st18" d="M-334.9,559.1c-0.8-0.5-1-1.4-0.6-2.1c0.6-0.9,1-0.8,1.7,0.4
				C-332.6,559.5-333.1,560.2-334.9,559.1z"/>
			<path id="ppVHtrljM" class="st18" d="M-213.8,555.4c-1.1-1.2-1-1.4,0.3-1.4c0.8,0,1.5-0.4,1.5-1c0-0.5-0.4-1-1-1
				c-0.5,0-1-0.7-1-1.5c0-0.8,0.8-1.5,1.8-1.5c1.2,0,1.7,0.8,1.7,2.5c0,1.4-0.3,2.5-0.7,2.5c-0.3,0-0.8,0.6-1,1.4
				C-212.5,556.6-212.7,556.6-213.8,555.4z"/>
			<path id="p3do8ohbA" class="st18" d="M-231,553.2c0-1.2-0.9-3.1-1.9-4.1c-1.1-1.1-1.7-2.2-1.4-2.4c0.2-0.3-0.2-0.5-0.9-0.4
				c-2.6,0.1-7.8-1.6-7.8-2.6c0-1.4,6.7-0.2,9.6,1.8c1.3,0.8,3.1,2.7,4,4.1c1.6,2.3,1.6,2.6,0.1,4.2
				C-230.9,555.3-231,555.3-231,553.2z"/>
			<path id="pN6LTvPcD" class="st18" d="M-260,551.2c0-0.5,0.9-1.7,2-2.7c2.2-2,2.6-1.4,1,1.6C-258.1,552-260,552.7-260,551.2z"/>
			<path id="p18nPQn800" class="st18" d="M-281.2,549.1c1-0.6,1.1-1.3,0.1-3.4c-0.7-1.5-1.6-2.7-2.1-2.7c-0.4,0-0.8-0.4-0.8-1
				c0-1.9,2.8,0.2,4,3c1.2,3,0.7,5-1.3,5C-282.1,550-282.1,549.7-281.2,549.1z"/>
			<path id="p19iu5lbhw" class="st18" d="M-204,548.9c0-1.3,2.8-1.8,3.3-0.6c0.3,0.7-0.3,1.3-1.4,1.3
				C-203.2,549.6-204,549.3-204,548.9z"/>
			<path id="pkJvhyd3I" class="st18" d="M-308.3,544.7c-1.2-1.9-1.2-2.6-0.2-4c1.8-2.5,2-2.2,2,2.3c0,2.2-0.1,4-0.1,4
				C-306.7,547-307.4,546-308.3,544.7z"/>
			<path id="p15Jkh1ueI" class="st18" d="M-254.4,546.1c-0.8-1.2,2.5-3.1,5.3-3.1c2.5,0,2.8,1.5,0.5,2.4s-2.6,0.8-1.8-0.6
				c0.4-0.7-0.2-0.5-1.3,0.5C-253,546.4-254,546.7-254.4,546.1z"/>
			<path id="pg5JtNKk7" class="st18" d="M-304.5,539c-0.9-1.4,2.9-3,7.2-3c4.7,0,11,1.7,11.9,3.2c0.5,0.8,0,0.9-1.7,0.4
				c-1.3-0.4-3.4-0.7-4.7-0.7c-1.3,0.1-2-0.4-1.7-0.9c0.3-0.6,0.1-1-0.5-1s-1.3,0.7-1.6,1.5c-0.5,1.1-1,1.2-2.5,0.2
				c-1.5-0.9-2.3-0.9-3.9,0C-303.1,539.5-304.1,539.6-304.5,539z"/>
			<path id="pwYm0UnNy" class="st18" d="M-321,535.5c0-1.4-0.4-2.5-1-2.5c-0.5,0-1-1.1-1-2.5c0-1.6,0.6-2.5,1.5-2.5
				c1.1,0,1.5,1.2,1.5,5c0,2.8-0.2,5-0.5,5S-321,536.9-321,535.5z"/>
			<path id="pAB6Ey93C" class="st18" d="M-231.2,533.3c-4.5-3.3-6-5.3-3.9-5.3c0.6,0,1.3,0.5,1.6,1c0.4,0.6,1,0.8,1.5,0.5
				c0.8-0.5,6.6,6.3,5.9,6.9C-226.3,536.6-228.6,535.2-231.2,533.3z"/>
			<path id="pGsGeDMDk" class="st18" d="M-334,533.2c0-1.3,0.7-2.5,1.5-2.9c2.6-0.9,2.8,0.4,0.6,2.8l-2.1,2.3V533.2z"/>
			<path id="pbvfHyEub" class="st18" d="M-250,529.1c0-1.8,1.8-2.1,3-0.6c1,1.3,0.9,1.5-0.9,1.5C-249,530-250,529.6-250,529.1z"/>
			<path id="p14nBOIxRV" class="st18" d="M-279.5,527.6c-1.9-0.8-2.5-1.5-1.7-2c0.7-0.4,1.2-0.2,1.2,0.5c0,0.7,0.6,0.4,1.4-0.7
				c1.3-1.7,1.5-1.8,2.1-0.2C-275.3,528.1-276.3,528.9-279.5,527.6z"/>
			<path id="pRoPToVwW" class="st18" d="M-308,526c0-1,4.1-3.5,5.3-3.2c0.4,0.1,0.7-0.2,0.7-0.7s0.7-1.2,1.6-1.5
				c1-0.4,1.4-0.1,1.2,1C-299.5,523.2-308,527.5-308,526z"/>
			<path id="p1Cj9VvRWl" class="st18" d="M-247.7,525.3c1.5-0.2,3.9-0.2,5.5,0c1.5,0.2,0.2,0.4-2.8,0.4S-249.3,525.5-247.7,525.3z"
				/>
			<path id="pv8KSb7ll" class="st18" d="M-216.7,519.5c0-3.8,0.2-5.3,0.4-3.2c0.2,2,0.2,5.2,0,7C-216.5,525-216.7,523.4-216.7,519.5
				z"/>
			<path id="py4jEd8Em" class="st18" d="M-292.6,522.9c-0.3-0.6-0.2-1.5,0.4-2.1s1.1-0.2,1.5,1.1
				C-290.2,524.1-291.4,524.8-292.6,522.9z"/>
			<path id="pA8Jip6P3" class="st18" d="M-314.4,510.2c-0.4-1.3-0.5-2.6-0.2-2.9c1-1.1,1.8,0.4,1.4,2.9l-0.4,2.3L-314.4,510.2z"/>
			<path id="pNsb3ViUP" class="st18" d="M-261.4,504.2c-0.5-0.9,7.9-1,8.8-0.1c0.3,0.3-1.4,0.7-3.8,0.7
				C-258.9,504.9-261.1,504.7-261.4,504.2z"/>
			<path id="pM8VlzEx2" class="st18" d="M-270.2,502.8c-1.6-0.5-2.8-1.4-2.8-1.9c0-1.5,5-1,5.6,0.5c0.3,0.8,1.2,1.2,1.9,1
				c0.7-0.3,1.6-0.1,1.9,0.4C-262.9,504-266.7,504-270.2,502.8z"/>
			<path id="pQCZ2Er7v" class="st18" d="M-280.2,498.6c-2.6-1.1-5-2.7-5.3-3.5c-1-2.5,0.4-2.4,2.9,0.4c1.4,1.5,3,2.4,3.5,2
				c0.6-0.3,1.1-0.1,1.1,0.5s0.4,0.9,0.9,0.5c0.9-0.5,2.7,1.3,2,1.9C-275.3,500.6-277.6,499.8-280.2,498.6z"/>
			<path id="pJ80p2KUu" class="st18" d="M-258,500c0-0.6,2.7-1,6-1s6,0.4,6,1s-2.7,1-6,1S-258,500.6-258,500z"/>
			<path id="p11txtDgn" class="st18" d="M-304.4,494.6c0.5-1.4,3.2-1.4,9.7-0.1c0.9,0.2,1.7-0.1,1.7-0.6s0.9-0.9,2-0.9s2,0.4,2,0.9
				c0,1.3-3.8,2.1-10.2,2.1C-303.8,496-304.8,495.7-304.4,494.6z"/>
		</g>
	</g>
	<path class="st12" d="M-192.4,681.1c-0.5-1.8-2.9-4.7-7.5-9.3c-3.1-3.1-6.3-6.5-7-7.4c-1.2-1.6-1.1-1.8,0.8-1.8
		c0.6,0,1.4,0.4,2.5,1l0,0c1.2,0.8,2.6,1.9,4,3.1c0,0,0.1,0,0.1,0.1c0.9,0.8,1.7,1.6,2.5,2.4c0.1,0.1,0.2,0.2,0.3,0.3
		c2.1,2.2,3.8,4.4,3.8,5.5"/>
	<path class="st17" d="M-210.6,715.9c-3.5,0.2-3.8-0.1-10.3-9c-3.6-5.1-7.5-10.9-8.6-13s-2.2-4-2.6-4.3c-0.3-0.3-2.2-3.1-4.2-6.2
		c-2-3.2-4.2-5.8-4.8-5.8c-1.7,0-0.5-4.5,1.3-4.8c1.3-0.2,1.6,0.1,1.2,1.1c-0.7,1.9,1.2,5.7,2.9,5.7c1.6,0,4,3.8,3.2,5
		c-0.4,0.6,0.1,1,0.9,1c1,0,1.5,0.8,1.3,2.2c-0.1,1.5,0.5,2.6,2,3.2c1.9,0.9,2.8,2.3,3.8,6.3c0.2,0.6,1.9,2.8,3.9,4.8
		c2,1.9,3.6,4,3.6,4.5c0,1.9,4.8,6,7.2,6"/>
	<path id="pRDpIVSPQ" class="st17" d="M-192.4,679.9c-0.4-1.4-3.3-5.3-6.4-8.5c-6.3-6.5-7.1-7.8-4.9-7.8c0.8,0,4.4,3.2,8.1,7
		c3.6,3.9,6.8,7,7.1,7"/>
</g>
<path id="Layer_2" class="st19" d="M-125.8,623.4c0,1.7-1.2,3.1-4,5c-0.4,0.3-0.9,0.6-1.4,1c-0.9,0.5-1.9,1.2-3,1.8
	c-0.2,0.1-0.4,0.2-0.5,0.3c-0.2,0.1-0.5,0.3-0.8,0.4c-0.2,0.1-0.4,0.3-0.6,0.4c0,0,0,0-0.1,0c-0.2,0.1-0.3,0.2-0.5,0.3
	s-0.4,0.2-0.5,0.3c-0.1,0-0.1,0.1-0.2,0.1c0,0-0.1,0-0.1,0.1c-1.2,0.8-2.1,1.5-2.9,2.1c-0.2,0.2-0.4,0.4-0.6,0.6l-0.1,0.1
	c-0.1,0.1-0.2,0.3-0.4,0.4c-0.2,0.2-0.3,0.3-0.4,0.5c-0.2,0.2-0.3,0.3-0.4,0.5c-0.2,0.2-0.3,0.4-0.5,0.6c-0.1,0.2-0.3,0.5-0.4,0.8
	c-0.1,0.2-0.2,0.4-0.3,0.6c-1.1,2-2.5,4.2-4.1,6.1c0,0,0,0,0,0.1c-1.4,1.7-2.9,3.2-4.4,4.5c-0.8,0.6-1.6,1.3-2.4,1.7
	c-0.2,0.1-0.3,0.2-0.4,0.3c-0.1,0-0.2,0.1-0.3,0.1c-0.4,0.2-0.8,0.5-1.1,0.9c-0.1,0.1-0.2,0.2-0.3,0.3c-0.1,0.1-0.1,0.1-0.2,0.2
	c-0.1,0.1-0.2,0.3-0.4,0.5c-1.4,1.9-2.7,5.6-5.1,13.4c-1.9,5.9-4,13.1-5.1,17.9c-0.1,0.6-0.3,1.3-0.4,1.8c-0.1,0.5-0.2,1.2-0.3,1.7
	c-0.8,3.5-1.6,6.5-2.6,9.1c0,0.1,0,0.1-0.1,0.2c-0.9,2.3-1.8,4.2-3,6.1l0,0c-1.4,2.4-3.2,4.6-5.4,6.9c-1.7,1.7-3.4,3.6-4.8,5.1l0,0
	c-0.9,1-1.6,1.8-2,2.4c0,0.1-0.1,0.1-0.1,0.2c-0.3,0.4-0.9,0.9-1.4,1.2c0,0,0,0-0.1,0c-2.5,1.4-6.5,1.6-10.7,0.5l0,0
	c-1.1-0.2-2-0.5-3-1l0,0c-0.8-0.3-1.5-0.6-2.3-1.1l0,0c-0.2-0.1-0.4-0.2-0.6-0.3c-0.4-0.3-0.9-0.5-1.3-0.8l0,0
	c-3.2-1.9-3.8-3-3.8-5.4c0-0.8,0.1-1.4,0.3-1.9c1.1-0.5,2.1-1.1,3.2-1.7c4.9-3.1,4.9-3.2,4-7.3c0-0.1,0-0.2-0.1-0.3l0,0
	c0-0.4,0.1-1,0.1-1.5c0-0.9,0-1.7,0.1-2.9c0-0.8,0-1.5,0-2.1l0,0c0-0.4,0-0.8,0-1.1c1-3,2.6-6.5,4.3-9.1c1.1-1.5,1.9-3.1,2.5-4.3
	c0-0.1,0-0.2,0.1-0.4c0.2-0.4,0.3-1,0.1-1.6c0.1-0.1,0.2-0.3,0.3-0.4c1.2-1.8,2.1-3.1,2.5-3.3c0.1-0.1,0.2-0.2,0.4-0.3
	c0.1-0.1,0.2-0.2,0.3-0.3c0.5-0.5,1.2-1.5,2-2.8l0,0c0.4-0.6,1-1.3,1.4-2l0,0c0.8-1.1,1.6-2.4,2.5-3.9l0,0c1.6-2.6,3.5-5.7,5.7-9.2
	l5.9-9.4l-1.9-2.8l-0.1-0.1l-0.8-1.1c-0.2-0.3-0.4-0.6-0.6-1c0-0.1-0.1-0.2-0.1-0.2s0-0.1-0.1-0.1l0,0c-0.1-0.2-0.3-0.4-0.4-0.6
	c-0.4-0.8-1-1.6-1.4-2.5l0,0c-0.1-0.2-0.3-0.5-0.4-0.8c-1.9-3.6-3.2-7.5-3.6-10.4c-0.1-0.6-0.3-1.5-0.8-2.4
	c-0.1-0.3-0.2-0.5-0.4-0.9c0-0.1-0.1-0.2-0.1-0.3c-0.2-0.4-0.4-0.8-0.6-1.2l0,0c-0.2-0.3-0.3-0.5-0.5-0.9s-0.3-0.5-0.5-0.9
	c-0.1-0.1-0.2-0.3-0.3-0.4c-0.6-0.8-1.2-1.5-1.6-2l0,0c-0.8-1-1.4-1.8-1.8-2.5l0,0c-1.5-2.1-1.2-2.5-0.1-3.8
	c1.1-1.3,2.7-1.7,4.4-1.5c0.9,0.1,1.7,0.3,2.7,0.8c0,0,0,0,0.1,0c1.1,0.4,2,1,3,1.7c0,0,0,0,0.1,0c0.9,0.6,1.6,1.3,2.3,2.1l0,0
	c0.3,0.3,0.6,0.8,0.9,1.1c0.1,0.1,0.2,0.2,0.3,0.3l0.1,0.1l0,0c0.2,0.3,0.3,0.5,0.5,0.9c0.1,0.1,0.1,0.2,0.2,0.3l0,0
	c0.1,0.2,0.3,0.4,0.5,0.8c0,0,0,0.1,0.1,0.1l0,0c0.1,0.2,0.2,0.3,0.3,0.5c0.4,0.5,0.9,1.1,1.2,1.4l0,0c0.1,0.1,2.3,4.8,2.4,4.9
	c0,0,0,0,0,0c0.1,0-0.5-2.5-0.5-2.6c-0.8-2.5-0.5-2.6-0.4-2.7c0.5-1,1.1-2.6,1.6-4.8v-0.1c0.1-0.3,0.1-0.5,0.2-0.9
	c0-0.2,0.1-0.3,0.1-0.5c0.6-3.3,1.2-7.6,1.4-12.3c0-0.6,0.1-1.3,0.1-1.8c0-0.1,0-0.2,0-0.3c0.2-4.1,0.4-6.2,0.9-7.5l0,0
	c0.4-1.6,1.3-1.8,2.9-2.3c2.1-0.6,3.4-0.4,4.3,1.1c0,0,0,0,0,0.1c0.9,1.7,1.3,4.9,1.5,10.4v0.1c0,0.2,0,0.4,0,0.8l0.4,9.3v0.8l0,0
	l0,0.3l0.3,0l0.2-0.5l4.3-8.6c0-0.1,0.1-0.1,0.1-0.2c0.1-0.2,0.2-0.5,0.3-0.8l0,0c0.3-0.5,0.5-1,0.8-1.5c0-0.1,0.1-0.2,0.1-0.3l0,0
	c0.2-0.3,0.3-0.6,0.5-1c0.5-1.1,1.1-2,1.6-2.8l0,0c0,0,0.1-0.1,0.1-0.2l0.1-0.1c1.5-2.4,2.6-3,4.1-3.1c0.8-0.1,1.3,0,1.8,0.1
	c0,0,0,0,0.1,0c1,0.2,1.6,0.9,2.3,1.8c0.6,1.2,0.9,2.1,0.5,3.6c0,0,0,0,0,0.1c0,0.2-0.1,0.4-0.2,0.6l0,0c-0.1,0.6-0.4,1.3-0.6,2l0,0
	c-0.1,0.3-0.2,0.6-0.4,1c-0.6,1.5-1.5,3.4-2.7,5.8c-1.6,3.3-2.8,6.3-2.6,6.9c0,0,0,0,0,0.1c0.3,0.2,2.9-1.7,5.7-4.4
	c0.3-0.3,0.8-0.6,1.1-1c1.9-1.8,3.4-3,4.6-3.8l0.1-0.1c0.9-0.4,1.5-0.8,2.1-0.8h0.1c0.9,0,1.7,0.4,2.6,1.2l0,0
	c0.1,0.1,0.2,0.2,0.3,0.3s0.2,0.2,0.3,0.3c0.8,0.9,1.2,1.6,1.1,2.6l0,0c0,0.3-0.1,0.5-0.2,0.9c-0.1,0.3-0.3,0.8-0.5,1.1
	c-0.6,1.2-1.8,2.5-3.4,4.3l0,0l-0.1,0.1c0,0,0,0.1-0.1,0.1c-0.6,0.6-1.3,1.4-2,2.1c-0.3,0.3-0.5,0.5-0.9,0.9l0,0
	c-0.1,0.1-0.2,0.2-0.2,0.2l-0.1,0.1c-1.6,1.7-2.8,3.2-3,3.9l0,0c-0.1,0.1-0.1,0.2-0.1,0.3c0.1,0,0.2,0,0.5,0c0,0,0,0,0.1,0l0,0
	c0.5-0.1,1.3-0.4,2.3-0.8l0,0c0.6-0.2,1.3-0.5,2-0.9c0.2-0.1,0.4-0.2,0.6-0.3c0,0,0,0,0.1,0c0.6-0.3,1.3-0.6,1.9-0.9
	c0.2-0.1,0.4-0.2,0.6-0.2c1.3-0.4,2.4-0.6,3.3-0.8c0.3,0,0.8,0,1.1,0c0.2,0,0.3,0,0.4,0.1c0.3,0,0.5,0.1,0.8,0.2l0,0
	c0.6,0.2,1.1,0.6,1.3,1.3v0.1c0,0.1,0,0.1,0.1,0.2c0.1,0.3,0.2,0.6,0.2,0.9C-125.8,623-125.8,623.2-125.8,623.4z"/>
</svg>
