<svg id="visual" viewBox="0 0 900 250" width="900" height="250" xmlns="http://www.w3.org/2000/svg" xmlns:xlink="http://www.w3.org/1999/xlink" version="1.1"><path d="M0 29L39 29L39 29L78 29L78 44L117 44L117 66L157 66L157 59L196 59L196 36L235 36L235 49L274 49L274 51L313 51L313 41L352 41L352 49L391 49L391 39L430 39L430 29L470 29L470 54L509 54L509 54L548 54L548 31L587 31L587 51L626 51L626 51L665 51L665 26L704 26L704 54L743 54L743 59L783 59L783 54L822 54L822 64L861 64L861 41L900 41L900 46L900 0L900 0L861 0L861 0L822 0L822 0L783 0L783 0L743 0L743 0L704 0L704 0L665 0L665 0L626 0L626 0L587 0L587 0L548 0L548 0L509 0L509 0L470 0L470 0L430 0L430 0L391 0L391 0L352 0L352 0L313 0L313 0L274 0L274 0L235 0L235 0L196 0L196 0L157 0L157 0L117 0L117 0L78 0L78 0L39 0L39 0L0 0Z" fill="#242424"></path><path d="M0 59L39 59L39 61L78 61L78 71L117 71L117 84L157 84L157 81L196 81L196 74L235 74L235 76L274 76L274 69L313 69L313 81L352 81L352 86L391 86L391 64L430 64L430 69L470 69L470 91L509 91L509 86L548 86L548 66L587 66L587 84L626 84L626 91L665 91L665 64L704 64L704 84L743 84L743 81L783 81L783 91L822 91L822 101L861 101L861 61L900 61L900 86L900 44L900 39L861 39L861 62L822 62L822 52L783 52L783 57L743 57L743 52L704 52L704 24L665 24L665 49L626 49L626 49L587 49L587 29L548 29L548 52L509 52L509 52L470 52L470 27L430 27L430 37L391 37L391 47L352 47L352 39L313 39L313 49L274 49L274 47L235 47L235 34L196 34L196 57L157 57L157 64L117 64L117 42L78 42L78 27L39 27L39 27L0 27Z" fill="#1d1d1d"></path><path d="M0 151L39 151L39 174L78 174L78 159L117 159L117 169L157 169L157 134L196 134L196 126L235 126L235 144L274 144L274 134L313 134L313 151L352 151L352 161L391 161L391 166L430 166L430 141L470 141L470 151L509 151L509 169L548 169L548 119L587 119L587 151L626 151L626 136L665 136L665 109L704 109L704 146L743 146L743 149L783 149L783 129L822 129L822 146L861 146L861 134L900 134L900 176L900 84L900 59L861 59L861 99L822 99L822 89L783 89L783 79L743 79L743 82L704 82L704 62L665 62L665 89L626 89L626 82L587 82L587 64L548 64L548 84L509 84L509 89L470 89L470 67L430 67L430 62L391 62L391 84L352 84L352 79L313 79L313 67L274 67L274 74L235 74L235 72L196 72L196 79L157 79L157 82L117 82L117 69L78 69L78 59L39 59L39 57L0 57Z" fill="#161616"></path><path d="M0 206L39 206L39 229L78 229L78 226L117 226L117 221L157 221L157 201L196 201L196 221L235 221L235 219L274 219L274 201L313 201L313 206L352 206L352 221L391 221L391 219L430 219L430 211L470 211L470 211L509 211L509 211L548 211L548 224L587 224L587 204L626 204L626 214L665 214L665 206L704 206L704 204L743 204L743 226L783 226L783 221L822 221L822 231L861 231L861 224L900 224L900 229L900 174L900 132L861 132L861 144L822 144L822 127L783 127L783 147L743 147L743 144L704 144L704 107L665 107L665 134L626 134L626 149L587 149L587 117L548 117L548 167L509 167L509 149L470 149L470 139L430 139L430 164L391 164L391 159L352 159L352 149L313 149L313 132L274 132L274 142L235 142L235 124L196 124L196 132L157 132L157 167L117 167L117 157L78 157L78 172L39 172L39 149L0 149Z" fill="#0d0d0d"></path><path d="M0 251L39 251L39 251L78 251L78 251L117 251L117 251L157 251L157 251L196 251L196 251L235 251L235 251L274 251L274 251L313 251L313 251L352 251L352 251L391 251L391 251L430 251L430 251L470 251L470 251L509 251L509 251L548 251L548 251L587 251L587 251L626 251L626 251L665 251L665 251L704 251L704 251L743 251L743 251L783 251L783 251L822 251L822 251L861 251L861 251L900 251L900 251L900 227L900 222L861 222L861 229L822 229L822 219L783 219L783 224L743 224L743 202L704 202L704 204L665 204L665 212L626 212L626 202L587 202L587 222L548 222L548 209L509 209L509 209L470 209L470 209L430 209L430 217L391 217L391 219L352 219L352 204L313 204L313 199L274 199L274 217L235 217L235 219L196 219L196 199L157 199L157 219L117 219L117 224L78 224L78 227L39 227L39 204L0 204Z" fill="#000000"></path></svg>