<svg id="visual" viewBox="0 0 1000 50" width="1000" height="50" xmlns="http://www.w3.org/2000/svg" xmlns:xlink="http://www.w3.org/1999/xlink" version="1.1"><rect x="0" y="0" width="1000" height="50" fill="#002233"></rect><path d="M0 8L5.5 13.7C11 19.3 22 30.7 33.2 32.7C44.3 34.7 55.7 27.3 66.8 27.3C78 27.3 89 34.7 100 33.3C111 32 122 22 133.2 19.3C144.3 16.7 155.7 21.3 166.8 26C178 30.7 189 35.3 200 38C211 40.7 222 41.3 233.2 42.8C244.3 44.3 255.7 46.7 266.8 43.8C278 41 289 33 300 25.7C311 18.3 322 11.7 333.2 15.5C344.3 19.3 355.7 33.7 366.8 33.5C378 33.3 389 18.7 400 14.8C411 11 422 18 433.2 22.8C444.3 27.7 455.7 30.3 466.8 27.3C478 24.3 489 15.7 500 18C511 20.3 522 33.7 533.2 38.5C544.3 43.3 555.7 39.7 566.8 32.5C578 25.3 589 14.7 600 16.7C611 18.7 622 33.3 633.2 38.8C644.3 44.3 655.7 40.7 666.8 39.7C678 38.7 689 40.3 700 41C711 41.7 722 41.3 733.2 35.5C744.3 29.7 755.7 18.3 766.8 17.8C778 17.3 789 27.7 800 29.2C811 30.7 822 23.3 833.2 23.7C844.3 24 855.7 32 866.8 31.5C878 31 889 22 900 17C911 12 922 11 933.2 12.8C944.3 14.7 955.7 19.3 966.8 20.3C978 21.3 989 18.7 994.5 17.3L1000 16L1000 0L994.5 0C989 0 978 0 966.8 0C955.7 0 944.3 0 933.2 0C922 0 911 0 900 0C889 0 878 0 866.8 0C855.7 0 844.3 0 833.2 0C822 0 811 0 800 0C789 0 778 0 766.8 0C755.7 0 744.3 0 733.2 0C722 0 711 0 700 0C689 0 678 0 666.8 0C655.7 0 644.3 0 633.2 0C622 0 611 0 600 0C589 0 578 0 566.8 0C555.7 0 544.3 0 533.2 0C522 0 511 0 500 0C489 0 478 0 466.8 0C455.7 0 444.3 0 433.2 0C422 0 411 0 400 0C389 0 378 0 366.8 0C355.7 0 344.3 0 333.2 0C322 0 311 0 300 0C289 0 278 0 266.8 0C255.7 0 244.3 0 233.2 0C222 0 211 0 200 0C189 0 178 0 166.8 0C155.7 0 144.3 0 133.2 0C122 0 111 0 100 0C89 0 78 0 66.8 0C55.7 0 44.3 0 33.2 0C22 0 11 0 5.5 0L0 0Z" fill="#0066FF" stroke-linecap="round" stroke-linejoin="miter"></path></svg>