<svg id="visual" viewBox="0 0 1000 50" width="1000" height="50" xmlns="http://www.w3.org/2000/svg" xmlns:xlink="http://www.w3.org/1999/xlink" version="1.1"><rect x="0" y="0" width="1000" height="50" fill="#002233"></rect><path d="M0 21L5.3 21.3C10.7 21.7 21.3 22.3 32.2 25.7C43 29 54 35 64.8 35.8C75.7 36.7 86.3 32.3 97 33C107.7 33.7 118.3 39.3 129 42.3C139.7 45.3 150.3 45.7 161.2 46C172 46.3 183 46.7 193.8 41.7C204.7 36.7 215.3 26.3 226 21.2C236.7 16 247.3 16 258 16.2C268.7 16.3 279.3 16.7 290.2 19.8C301 23 312 29 322.8 32.5C333.7 36 344.3 37 355 31.8C365.7 26.7 376.3 15.3 387 9.3C397.7 3.3 408.3 2.7 419.2 4.3C430 6 441 10 451.8 17.3C462.7 24.7 473.3 35.3 484 34.8C494.7 34.3 505.3 22.7 516 22.7C526.7 22.7 537.3 34.3 548.2 35.2C559 36 570 26 580.8 20.2C591.7 14.3 602.3 12.7 613 14.8C623.7 17 634.3 23 645 23C655.7 23 666.3 17 677.2 14.2C688 11.3 699 11.7 709.8 13.7C720.7 15.7 731.3 19.3 742 18.5C752.7 17.7 763.3 12.3 774 10C784.7 7.7 795.3 8.3 806.2 12.2C817 16 828 23 838.8 24.2C849.7 25.3 860.3 20.7 871 23C881.7 25.3 892.3 34.7 903 38.3C913.7 42 924.3 40 935.2 35.2C946 30.3 957 22.7 967.8 20.5C978.7 18.3 989.3 21.7 994.7 23.3L1000 25L1000 0L994.7 0C989.3 0 978.7 0 967.8 0C957 0 946 0 935.2 0C924.3 0 913.7 0 903 0C892.3 0 881.7 0 871 0C860.3 0 849.7 0 838.8 0C828 0 817 0 806.2 0C795.3 0 784.7 0 774 0C763.3 0 752.7 0 742 0C731.3 0 720.7 0 709.8 0C699 0 688 0 677.2 0C666.3 0 655.7 0 645 0C634.3 0 623.7 0 613 0C602.3 0 591.7 0 580.8 0C570 0 559 0 548.2 0C537.3 0 526.7 0 516 0C505.3 0 494.7 0 484 0C473.3 0 462.7 0 451.8 0C441 0 430 0 419.2 0C408.3 0 397.7 0 387 0C376.3 0 365.7 0 355 0C344.3 0 333.7 0 322.8 0C312 0 301 0 290.2 0C279.3 0 268.7 0 258 0C247.3 0 236.7 0 226 0C215.3 0 204.7 0 193.8 0C183 0 172 0 161.2 0C150.3 0 139.7 0 129 0C118.3 0 107.7 0 97 0C86.3 0 75.7 0 64.8 0C54 0 43 0 32.2 0C21.3 0 10.7 0 5.3 0L0 0Z" fill="#0066FF" stroke-linecap="round" stroke-linejoin="miter"></path></svg>