<svg id="visual" viewBox="0 0 900 250" width="900" height="250" xmlns="http://www.w3.org/2000/svg" xmlns:xlink="http://www.w3.org/1999/xlink" version="1.1"><rect x="0" y="0" width="900" height="250" fill="#050b24"></rect><path d="M0 53L113 41L225 40L338 74L450 32L563 74L675 36L788 38L900 79L900 251L788 251L675 251L563 251L450 251L338 251L225 251L113 251L0 251Z" fill="#ffffff"></path><path d="M0 105L113 89L225 110L338 88L450 84L563 75L675 111L788 62L900 93L900 251L788 251L675 251L563 251L450 251L338 251L225 251L113 251L0 251Z" fill="#c2c2c2"></path><path d="M0 150L113 97L225 137L338 108L450 144L563 99L675 108L788 107L900 158L900 251L788 251L675 251L563 251L450 251L338 251L225 251L113 251L0 251Z" fill="#898989"></path><path d="M0 182L113 157L225 173L338 189L450 175L563 162L675 193L788 158L900 189L900 251L788 251L675 251L563 251L450 251L338 251L225 251L113 251L0 251Z" fill="#545454"></path><path d="M0 235L113 191L225 188L338 206L450 216L563 215L675 234L788 188L900 221L900 251L788 251L675 251L563 251L450 251L338 251L225 251L113 251L0 251Z" fill="#242424"></path></svg>