<svg id="visual" viewBox="0 0 900 250" width="900" height="250" xmlns="http://www.w3.org/2000/svg" xmlns:xlink="http://www.w3.org/1999/xlink" version="1.1"><rect x="0" y="0" width="900" height="250" fill="#73A5C6"></rect><path d="M0 51L15 60.8C30 70.7 60 90.3 90 94.3C120 98.3 150 86.7 180 74.7C210 62.7 240 50.3 270 43.2C300 36 330 34 360 40.8C390 47.7 420 63.3 450 65.8C480 68.3 510 57.7 540 51C570 44.3 600 41.7 630 45.5C660 49.3 690 59.7 720 63.7C750 67.7 780 65.3 810 67.2C840 69 870 75 885 78L900 81L900 251L885 251C870 251 840 251 810 251C780 251 750 251 720 251C690 251 660 251 630 251C600 251 570 251 540 251C510 251 480 251 450 251C420 251 390 251 360 251C330 251 300 251 270 251C240 251 210 251 180 251C150 251 120 251 90 251C60 251 30 251 15 251L0 251Z" fill="#0927ff"></path><path d="M0 75L15 82C30 89 60 103 90 107C120 111 150 105 180 102.8C210 100.7 240 102.3 270 97.2C300 92 330 80 360 73.5C390 67 420 66 450 71.5C480 77 510 89 540 95.5C570 102 600 103 630 104.5C660 106 690 108 720 111.5C750 115 780 120 810 122.7C840 125.3 870 125.7 885 125.8L900 126L900 251L885 251C870 251 840 251 810 251C780 251 750 251 720 251C690 251 660 251 630 251C600 251 570 251 540 251C510 251 480 251 450 251C420 251 390 251 360 251C330 251 300 251 270 251C240 251 210 251 180 251C150 251 120 251 90 251C60 251 30 251 15 251L0 251Z" fill="#002ada"></path><path d="M0 107L15 109C30 111 60 115 90 121.7C120 128.3 150 137.7 180 137.3C210 137 240 127 270 129.3C300 131.7 330 146.3 360 151C390 155.7 420 150.3 450 144.3C480 138.3 510 131.7 540 125.7C570 119.7 600 114.3 630 109.7C660 105 690 101 720 103.3C750 105.7 780 114.3 810 116.8C840 119.3 870 115.7 885 113.8L900 112L900 251L885 251C870 251 840 251 810 251C780 251 750 251 720 251C690 251 660 251 630 251C600 251 570 251 540 251C510 251 480 251 450 251C420 251 390 251 360 251C330 251 300 251 270 251C240 251 210 251 180 251C150 251 120 251 90 251C60 251 30 251 15 251L0 251Z" fill="#0029b5"></path><path d="M0 129L15 135.5C30 142 60 155 90 154.8C120 154.7 150 141.3 180 139.8C210 138.3 240 148.7 270 150C300 151.3 330 143.7 360 146.3C390 149 420 162 450 158.8C480 155.7 510 136.3 540 130.7C570 125 600 133 630 133.2C660 133.3 690 125.7 720 124.8C750 124 780 130 810 133.7C840 137.3 870 138.7 885 139.3L900 140L900 251L885 251C870 251 840 251 810 251C780 251 750 251 720 251C690 251 660 251 630 251C600 251 570 251 540 251C510 251 480 251 450 251C420 251 390 251 360 251C330 251 300 251 270 251C240 251 210 251 180 251C150 251 120 251 90 251C60 251 30 251 15 251L0 251Z" fill="#002690"></path><path d="M0 160L15 165.5C30 171 60 182 90 179.3C120 176.7 150 160.3 180 160.2C210 160 240 176 270 183.7C300 191.3 330 190.7 360 189.3C390 188 420 186 450 178.5C480 171 510 158 540 152.5C570 147 600 149 630 155.3C660 161.7 690 172.3 720 172.3C750 172.3 780 161.7 810 163C840 164.3 870 177.7 885 184.3L900 191L900 251L885 251C870 251 840 251 810 251C780 251 750 251 720 251C690 251 660 251 630 251C600 251 570 251 540 251C510 251 480 251 450 251C420 251 390 251 360 251C330 251 300 251 270 251C240 251 210 251 180 251C150 251 120 251 90 251C60 251 30 251 15 251L0 251Z" fill="#00206b"></path><path d="M0 177L15 183.2C30 189.3 60 201.7 90 202.8C120 204 150 194 180 189C210 184 240 184 270 186.3C300 188.7 330 193.3 360 192C390 190.7 420 183.3 450 185C480 186.7 510 197.3 540 200.5C570 203.7 600 199.3 630 195.3C660 191.3 690 187.7 720 189.5C750 191.3 780 198.7 810 203.2C840 207.7 870 209.3 885 210.2L900 211L900 251L885 251C870 251 840 251 810 251C780 251 750 251 720 251C690 251 660 251 630 251C600 251 570 251 540 251C510 251 480 251 450 251C420 251 390 251 360 251C330 251 300 251 270 251C240 251 210 251 180 251C150 251 120 251 90 251C60 251 30 251 15 251L0 251Z" fill="#001847"></path><path d="M0 215L15 214.3C30 213.7 60 212.3 90 210.2C120 208 150 205 180 204.5C210 204 240 206 270 210.3C300 214.7 330 221.3 360 220C390 218.7 420 209.3 450 207.7C480 206 510 212 540 217.8C570 223.7 600 229.3 630 231.2C660 233 690 231 720 230.5C750 230 780 231 810 229.2C840 227.3 870 222.7 885 220.3L900 218L900 251L885 251C870 251 840 251 810 251C780 251 750 251 720 251C690 251 660 251 630 251C600 251 570 251 540 251C510 251 480 251 450 251C420 251 390 251 360 251C330 251 300 251 270 251C240 251 210 251 180 251C150 251 120 251 90 251C60 251 30 251 15 251L0 251Z" fill="#050b24"></path></svg>