<svg id="visual" viewBox="0 0 900 250" width="900" height="250" xmlns="http://www.w3.org/2000/svg" xmlns:xlink="http://www.w3.org/1999/xlink" version="1.1"><rect x="0" y="0" width="900" height="250" fill="#050b24"></rect><path d="M0 13L21.5 48.2C43 83.3 86 153.7 128.8 190.2C171.7 226.7 214.3 229.3 257.2 197.8C300 166.3 343 100.7 385.8 72.7C428.7 44.7 471.3 54.3 514.2 77.2C557 100 600 136 642.8 138.7C685.7 141.3 728.3 110.7 771.2 83.3C814 56 857 32 878.5 20L900 8L900 251L878.5 251C857 251 814 251 771.2 251C728.3 251 685.7 251 642.8 251C600 251 557 251 514.2 251C471.3 251 428.7 251 385.8 251C343 251 300 251 257.2 251C214.3 251 171.7 251 128.8 251C86 251 43 251 21.5 251L0 251Z" fill="#451e66" stroke-linecap="round" stroke-linejoin="miter"></path></svg>