<svg id="visual" viewBox="0 0 900 250" width="900" height="250" xmlns="http://www.w3.org/2000/svg" xmlns:xlink="http://www.w3.org/1999/xlink" version="1.1"><rect x="0" y="0" width="900" height="250" fill="#fff"></rect><path d="M0 123L13.7 120.8C27.3 118.7 54.7 114.3 82 110.7C109.3 107 136.7 104 163.8 113.3C191 122.7 218 144.3 245.2 153.7C272.3 163 299.7 160 327 156.3C354.3 152.7 381.7 148.3 409 139.5C436.3 130.7 463.7 117.3 491 103.7C518.3 90 545.7 76 573 69.5C600.3 63 627.7 64 654.8 79.5C682 95 709 125 736.2 129C763.3 133 790.7 111 818 112.7C845.3 114.3 872.7 139.7 886.3 152.3L900 165L900 251L886.3 251C872.7 251 845.3 251 818 251C790.7 251 763.3 251 736.2 251C709 251 682 251 654.8 251C627.7 251 600.3 251 573 251C545.7 251 518.3 251 491 251C463.7 251 436.3 251 409 251C381.7 251 354.3 251 327 251C299.7 251 272.3 251 245.2 251C218 251 191 251 163.8 251C136.7 251 109.3 251 82 251C54.7 251 27.3 251 13.7 251L0 251Z" fill="#73A5C6" stroke-linecap="round" stroke-linejoin="miter"></path></svg>