<svg id="visual" viewBox="0 0 900 600" width="900" height="600" xmlns="http://www.w3.org/2000/svg" xmlns:xlink="http://www.w3.org/1999/xlink" version="1.1"><rect x="0" y="0" width="900" height="600" fill="#002233"></rect><path d="M0 506L4.8 517.5C9.7 529 19.3 552 29 549.3C38.7 546.7 48.3 518.3 58 520.2C67.7 522 77.3 554 87 570.7C96.7 587.3 106.3 588.7 116 573.5C125.7 558.3 135.3 526.7 145 528.2C154.7 529.7 164.3 564.3 174 575.5C183.7 586.7 193.3 574.3 203 562.3C212.7 550.3 222.3 538.7 232 537.2C241.7 535.7 251.3 544.3 261 538.8C270.7 533.3 280.3 513.7 290 509.5C299.7 505.3 309.3 516.7 319 515.2C328.7 513.7 338.3 499.3 348 495.2C357.7 491 367.3 497 377 506.8C386.7 516.7 396.3 530.3 406 528.7C415.7 527 425.3 510 435.2 516.8C445 523.7 455 554.3 464.8 564.7C474.7 575 484.3 565 494 566.7C503.7 568.3 513.3 581.7 523 571.8C532.7 562 542.3 529 552 519.3C561.7 509.7 571.3 523.3 581 534.5C590.7 545.7 600.3 554.3 610 545.3C619.7 536.3 629.3 509.7 639 511C648.7 512.3 658.3 541.7 668 559.7C677.7 577.7 687.3 584.3 697 585.3C706.7 586.3 716.3 581.7 726 577.2C735.7 572.7 745.3 568.3 755 553C764.7 537.7 774.3 511.3 784 504.3C793.7 497.3 803.3 509.7 813 520.2C822.7 530.7 832.3 539.3 842 546.2C851.7 553 861.3 558 871 554C880.7 550 890.3 537 895.2 530.5L900 524L900 601L895.2 601C890.3 601 880.7 601 871 601C861.3 601 851.7 601 842 601C832.3 601 822.7 601 813 601C803.3 601 793.7 601 784 601C774.3 601 764.7 601 755 601C745.3 601 735.7 601 726 601C716.3 601 706.7 601 697 601C687.3 601 677.7 601 668 601C658.3 601 648.7 601 639 601C629.3 601 619.7 601 610 601C600.3 601 590.7 601 581 601C571.3 601 561.7 601 552 601C542.3 601 532.7 601 523 601C513.3 601 503.7 601 494 601C484.3 601 474.7 601 464.8 601C455 601 445 601 435.2 601C425.3 601 415.7 601 406 601C396.3 601 386.7 601 377 601C367.3 601 357.7 601 348 601C338.3 601 328.7 601 319 601C309.3 601 299.7 601 290 601C280.3 601 270.7 601 261 601C251.3 601 241.7 601 232 601C222.3 601 212.7 601 203 601C193.3 601 183.7 601 174 601C164.3 601 154.7 601 145 601C135.3 601 125.7 601 116 601C106.3 601 96.7 601 87 601C77.3 601 67.7 601 58 601C48.3 601 38.7 601 29 601C19.3 601 9.7 601 4.8 601L0 601Z" fill="#0066FF" stroke-linecap="round" stroke-linejoin="miter"></path></svg>