<svg id="visual" viewBox="0 0 900 600" width="900" height="600" xmlns="http://www.w3.org/2000/svg" xmlns:xlink="http://www.w3.org/1999/xlink" version="1.1"><rect x="0" y="0" width="900" height="600" fill="#002233"></rect><path d="M0 150L11.5 150.8C23 151.7 46 153.3 69 142.5C92 131.7 115 108.3 138.2 115C161.3 121.7 184.7 158.3 207.8 165.3C231 172.3 254 149.7 277 136.3C300 123 323 119 346 135.2C369 151.3 392 187.7 415.2 200.7C438.3 213.7 461.7 203.3 484.8 186.5C508 169.7 531 146.3 554 136C577 125.7 600 128.3 623 131C646 133.7 669 136.3 692.2 143.7C715.3 151 738.7 163 761.8 156.7C785 150.3 808 125.7 831 110C854 94.3 877 87.7 888.5 84.3L900 81L900 0L888.5 0C877 0 854 0 831 0C808 0 785 0 761.8 0C738.7 0 715.3 0 692.2 0C669 0 646 0 623 0C600 0 577 0 554 0C531 0 508 0 484.8 0C461.7 0 438.3 0 415.2 0C392 0 369 0 346 0C323 0 300 0 277 0C254 0 231 0 207.8 0C184.7 0 161.3 0 138.2 0C115 0 92 0 69 0C46 0 23 0 11.5 0L0 0Z" fill="#0066FF" stroke-linecap="round" stroke-linejoin="miter"></path></svg>